 <svg  version="1.0" xmlns="http://www.w3.org/2000/svg"  width="200.000000pt" height="300.000000pt" viewBox="0 0 200.000000 300.000000"  preserveAspectRatio="xMidYMid meet">  <g transform="translate(0.000000,300.000000) scale(0.050000,-0.050000)" fill="#ffffff" stroke="none"> <path d="M1941 5891 c-16 -19 -19 -54 -11 -95 12 -54 9 -61 -12 -41 -37 36 -68 31 -37 -6 18 -22 43 -27 85 -18 52 12 56 10 32 -16 -15 -16 -41 -29 -57 -29 -95 -1 -103 -5 -82 -45 12 -21 16 -55 9 -75 -10 -30 -8 -31 10 -6 12 17 22 23 22 13 0 -9 36 21 80 67 84 87 87 118 14 122 -34 2 -36 5 -9 12 20 5 30 20 24 33 -7 12 3 5 20 -17 18 -22 39 -40 47 -40 8 0 13 -9 12 -21 -1 -11 15 -22 35 -24 24 -2 33 6 24 20 -8 13 -13 53 -10 90 6 84 -11 115 -47 85 -18 -15 -30 -15 -39 -1 -19 30 -82 26 -110 -8z"/> <path d="M2181 5823 c-26 -51 -13 -183 21 -205 25 -16 11 -26 -27 -20 -8 1 -15 -13 -15 -31 0 -30 4 -30 35 -3 67 57 91 65 68 21 -12 -22 -18 -44 -13 -48 15 -16 -79 -7 -105 9 -14 9 -25 9 -25 0 0 -9 -10 -2 -22 14 -17 24 -20 22 -12 -13 8 -37 2 -42 -40 -35 -35 7 -47 2 -40 -16 5 -14 20 -23 34 -20 15 3 20 -6 13 -26 -15 -39 41 -64 72 -33 34 34 64 28 35 -7 -20 -24 -19 -30 4 -30 46 0 76 42 57 79 -14 25 -9 32 19 32 20 0 33 -7 27 -15 -5 -9 4 -22 22 -28 17 -7 26 -20 20 -29 -6 -10 -23 -13 -38 -7 -15 6 -34 0 -42 -14 -11 -17 -6 -21 16 -13 18 7 36 0 43 -16 7 -19 -2 -29 -26 -29 -20 0 -48 -13 -61 -29 -21 -25 -14 -27 42 -19 56 9 70 3 88 -37 26 -57 16 -95 -24 -95 -16 0 -24 -8 -18 -19 21 -34 -29 -44 -61 -12 -30 30 -36 26 -72 -49 -33 -65 -46 -76 -68 -58 -22 18 -28 16 -28 -7 0 -17 14 -36 32 -43 43 -16 52 -15 40 5 -17 28 34 83 85 93 27 5 70 23 96 40 26 17 57 26 68 20 10 -7 30 -6 43 3 13 8 51 17 84 21 168 18 87 101 -85 87 l-46 -4 41 41 c23 23 42 56 42 73 0 17 9 26 20 19 11 -7 20 2 20 19 0 17 -5 31 -10 31 -19 0 -100 -50 -115 -70 -8 -12 -15 -9 -15 8 0 16 -6 23 -13 16 -7 -7 0 -28 15 -46 23 -28 22 -32 -12 -25 -48 9 -50 68 -6 137 53 83 64 140 26 140 -17 0 -29 13 -26 29 3 15 -3 27 -14 25 -11 -2 -17 -15 -14 -27 3 -13 -6 -31 -19 -39 -14 -8 -18 -6 -10 7 25 41 -7 79 -58 70 l-48 -10 29 98 c40 132 23 186 -29 90z"/> <path d="M1681 5615 c0 -14 13 -42 30 -64 40 -53 37 -69 -11 -57 -64 17 -46 -30 25 -67 36 -18 54 -37 40 -42 -14 -5 -25 -17 -25 -28 0 -11 8 -14 19 -8 10 6 24 3 31 -9 7 -11 4 -20 -7 -20 -11 0 -15 -17 -9 -38 5 -21 -2 -44 -15 -53 -15 -9 -20 -7 -12 6 14 23 -41 51 -69 34 -9 -6 -12 3 -6 20 24 63 -12 29 -51 -48 -54 -105 -38 -141 56 -132 46 5 71 17 67 33 -5 19 0 19 22 2 32 -28 62 -8 36 24 -37 46 13 114 75 103 38 -7 67 0 83 19 16 19 17 30 4 30 -12 0 -28 -10 -36 -23 -9 -15 -19 -12 -32 11 -10 18 -27 27 -38 21 -36 -23 -77 31 -60 78 9 23 12 54 7 68 -4 14 2 25 16 25 14 0 19 -16 13 -40 -8 -30 0 -40 30 -40 26 0 37 -10 30 -28 -7 -16 4 -32 26 -38 39 -10 21 66 -27 116 -12 13 -14 9 -4 -10 7 -16 0 -13 -18 9 -17 21 -31 66 -31 100 0 57 -5 61 -80 66 -55 4 -80 -2 -79 -20z"/> <path d="M1520 5440 c0 -11 15 -20 33 -20 26 0 24 -8 -13 -40 -49 -43 -120 -54 -120 -19 0 12 10 15 23 7 14 -9 18 -5 9 9 -8 13 -23 23 -33 23 -61 0 39 -147 114 -169 59 -17 89 64 38 101 -44 32 -7 56 60 40 73 -19 59 2 -31 48 -44 22 -80 32 -80 20z m8 -123 c-10 -16 -4 -20 16 -12 23 9 29 2 22 -25 -7 -24 -21 -33 -43 -26 -62 22 -65 30 -29 57 45 34 52 36 34 6z"/> <path d="M1989 5349 c8 -69 23 -80 61 -41 38 37 90 43 90 9 0 -13 6 -18 13 -11 29 29 -36 74 -76 52 -22 -11 -50 -16 -63 -11 -17 7 -16 10 2 11 15 1 21 11 14 22 -23 38 -46 20 -41 -31z"/> <path d="M2227 5229 c-7 -18 -4 -40 7 -51 22 -22 86 -3 86 26 0 11 -13 15 -29 9 -19 -7 -25 -1 -18 18 6 16 1 29 -11 29 -13 0 -29 -14 -35 -31z"/> <path d="M1368 5197 c-8 -14 -5 -28 8 -32 13 -5 24 -21 24 -35 0 -15 9 -33 21 -40 13 -9 16 5 8 38 -8 33 -5 52 9 52 12 0 22 -22 22 -49 0 -58 34 -85 67 -52 17 18 14 20 -17 9 -31 -11 -35 -9 -17 11 27 30 67 12 67 -30 0 -16 10 -29 22 -29 14 0 17 17 8 45 -7 25 -15 59 -16 75 -2 18 -23 30 -53 31 -28 0 -70 7 -94 16 -28 9 -49 6 -59 -10z"/> <path d="M2340 5104 c0 -9 -31 -27 -69 -41 -65 -24 -68 -29 -61 -109 5 -46 3 -73 -3 -59 -6 14 -19 20 -29 14 -26 -16 58 -129 88 -119 76 26 154 25 154 -2 0 -17 16 -25 45 -21 25 4 60 -2 77 -13 42 -26 101 -4 87 32 -6 15 2 27 18 27 17 0 25 -12 19 -27 -7 -18 14 -13 62 15 63 38 72 39 72 10 0 -18 -9 -28 -20 -21 -11 7 -36 3 -55 -8 -30 -18 -27 -21 19 -21 48 -1 96 44 96 90 0 29 -331 -22 -379 -59 -23 -18 -26 -15 -15 13 10 28 2 35 -39 35 -34 0 -54 13 -61 40 -6 22 -18 40 -27 40 -8 0 -13 16 -10 35 3 19 -2 51 -12 70 -15 29 -10 35 33 35 31 0 47 -9 40 -20 -7 -12 -21 -15 -31 -9 -11 6 -19 2 -19 -9 0 -27 68 -20 95 10 17 18 13 27 -18 35 -23 5 -35 20 -28 32 7 11 4 21 -8 21 -11 0 -21 -7 -21 -16z"/> <path d="M2621 5044 c6 -63 -1 -86 -22 -73 -12 7 -39 -3 -60 -22 -24 -22 -39 -26 -39 -11 0 13 26 35 59 49 41 17 54 32 42 51 -11 18 -20 20 -30 4 -7 -12 -44 -22 -82 -22 -38 0 -69 -10 -69 -22 0 -12 -13 -17 -29 -11 -17 6 -35 3 -42 -8 -6 -10 3 -19 20 -19 17 0 32 -11 32 -25 1 -14 10 -5 20 20 25 63 84 62 61 -1 -22 -57 94 -77 138 -24 14 16 37 30 52 30 16 0 28 9 28 20 0 38 6 50 36 72 23 17 14 22 -45 24 -58 2 -73 -4 -70 -32z"/> <path d="M1257 5030 c-30 -30 52 -131 97 -121 24 6 48 4 53 -4 5 -8 -19 -18 -54 -21 -55 -6 -106 -13 -158 -21 -31 -6 -14 -63 20 -66 19 -2 48 -4 63 -5 15 -1 31 -23 35 -48 6 -41 3 -43 -38 -21 -41 22 -43 21 -17 -11 16 -18 39 -30 51 -25 23 9 106 -41 90 -53 -5 -4 -47 -18 -94 -31 -98 -28 -108 -56 -30 -84 30 -11 73 -28 95 -38 86 -39 200 15 127 61 -41 26 -53 22 -67 -22 -7 -22 -21 -40 -31 -40 -10 0 -12 14 -6 31 10 25 1 29 -45 19 -32 -6 -14 6 39 28 91 37 163 83 89 56 -24 -8 -31 -4 -23 17 13 34 39 38 58 8 9 -15 20 -14 38 1 20 16 36 4 68 -49 26 -44 33 -71 18 -71 -17 0 -17 -6 1 -24 18 -18 33 -14 67 15 24 22 37 27 28 11 -12 -19 -8 -24 11 -17 15 5 26 21 23 34 -4 13 3 18 15 11 11 -7 20 -3 20 9 0 11 -11 21 -26 21 -14 0 -41 18 -60 41 -33 39 -87 37 -63 -2 6 -11 1 -19 -12 -19 -14 0 -18 14 -10 35 23 58 22 70 -4 79 -16 6 -21 -3 -14 -27 7 -22 -1 -17 -21 13 -18 28 -28 35 -23 16 6 -18 -1 -43 -15 -54 -36 -30 -57 -2 -27 35 16 19 17 26 2 17 -64 -39 -173 -34 -137 6 33 37 33 38 -16 29 -40 -7 -49 -2 -44 26 4 19 8 44 8 54 1 10 13 8 26 -5 28 -28 64 -32 47 -5 -6 10 -3 24 8 30 11 7 16 48 12 92 -9 86 -3 94 41 50 18 -18 21 -33 8 -41 -11 -7 -20 -21 -20 -32 0 -11 8 -15 18 -9 10 6 23 -4 30 -22 7 -18 19 -27 25 -20 7 6 1 26 -13 43 -19 22 -20 38 -5 53 25 25 111 3 94 -24 -26 -42 84 -15 128 31 l47 50 -57 0 c-31 0 -70 -9 -86 -19 -18 -11 -38 -11 -52 -1 -26 23 -314 49 -332 30z"/> <path d="M1727 4910 c-24 -27 -48 -61 -54 -75 -6 -15 -10 -11 -11 10 -1 21 -18 35 -43 35 -27 0 -39 -11 -35 -34 4 -25 -9 -36 -48 -39 -40 -3 -51 3 -43 24 7 18 -1 29 -21 29 -19 0 -32 -17 -32 -40 0 -22 12 -40 27 -40 15 0 80 -17 144 -39 88 -29 122 -33 133 -15 8 13 30 24 48 24 19 0 38 14 43 30 7 25 5 25 -11 2 -11 -15 -29 -21 -40 -14 -11 7 -43 4 -70 -7 -59 -22 -130 17 -105 58 13 20 19 20 32 0 12 -21 26 -19 64 6 75 49 117 96 104 117 -18 28 -35 21 -82 -32z"/> <path d="M1901 4921 c-35 -22 -28 -31 36 -50 38 -12 45 -8 40 20 -9 43 -37 55 -76 30z"/> <path d="M2628 4731 c-7 -17 -36 -31 -67 -31 -46 0 -141 -74 -141 -110 0 -24 57 -7 68 21 9 23 20 26 49 11 21 -12 45 -14 54 -6 8 8 9 3 1 -11 -8 -14 -22 -21 -31 -15 -14 8 -41 -33 -41 -63 0 -5 36 -5 80 -1 90 9 101 -11 35 -69 -25 -22 -34 -34 -20 -27 14 7 25 0 25 -16 0 -20 16 -25 50 -19 28 5 50 23 50 41 0 17 5 25 12 19 6 -6 38 -2 71 9 60 21 68 57 16 71 -24 7 -23 4 1 -13 17 -12 21 -22 9 -22 -12 0 -31 10 -43 22 -16 16 -33 15 -64 -1 -31 -16 -42 -16 -42 0 0 12 36 37 80 55 44 19 80 41 80 50 0 9 -8 11 -19 5 -10 -6 -32 8 -50 33 l-31 45 0 -46 c0 -29 -8 -40 -23 -31 -16 10 -20 4 -11 -20 8 -20 6 -29 -6 -22 -11 7 -20 30 -20 52 0 22 9 35 20 28 11 -7 15 1 8 17 -6 17 -26 24 -50 18 -33 -8 -35 -15 -13 -42 21 -28 21 -30 -6 -9 -20 15 -41 17 -60 5 -40 -25 -79 -24 -79 3 0 12 12 18 27 12 36 -14 144 57 115 75 -12 7 -28 -1 -34 -18z"/> <path d="M1855 4706 c14 -5 25 -18 25 -29 0 -11 -8 -14 -18 -8 -10 6 -23 -3 -30 -21 -16 -43 -15 -48 9 -48 12 0 16 9 9 20 -7 11 -4 20 7 20 11 0 24 -11 30 -25 7 -18 10 -17 11 3 1 16 15 43 31 61 26 28 22 32 -35 34 -35 1 -53 -2 -39 -7z"/> <path d="M2060 4699 c0 -12 -16 -16 -37 -10 -45 14 -109 -51 -92 -95 9 -24 2 -29 -29 -20 -23 6 -42 2 -42 -8 0 -26 59 -100 59 -75 1 12 -10 33 -24 47 -21 22 -17 23 20 4 25 -13 45 -32 45 -43 0 -10 9 -19 21 -19 11 0 18 15 15 32 -10 56 61 85 95 39 16 -21 29 -30 30 -20 0 11 10 3 21 -17 17 -29 27 -31 50 -13 15 13 28 18 28 11 0 -7 28 1 62 19 39 20 57 42 50 60 -6 16 1 29 16 29 17 0 23 -17 17 -47 -6 -36 2 -50 34 -59 28 -7 40 -3 35 13 -5 12 -18 21 -28 19 -22 -4 -21 94 2 131 19 30 -4 61 -24 32 -8 -10 -45 -19 -84 -19 -50 0 -71 -10 -76 -35 -4 -21 5 -35 25 -35 17 0 31 -14 31 -31 0 -20 -13 -29 -35 -25 -19 4 -46 -6 -60 -23 -21 -27 -26 -25 -37 16 -11 36 -18 40 -33 20 -13 -19 -16 -14 -8 19 8 37 3 43 -27 34 -20 -6 -43 -2 -50 10 -7 11 -21 15 -31 9 -11 -6 -19 -2 -19 9 0 13 24 16 60 9 47 -9 60 -5 60 21 0 17 -9 32 -20 32 -11 0 -20 -10 -20 -21z"/> <path d="M1706 4467 c-42 -17 -4 -67 51 -67 42 -1 47 -5 23 -20 -26 -17 -25 -19 5 -20 19 0 35 14 35 30 0 17 -18 30 -39 30 -27 0 -36 10 -28 30 11 30 -2 35 -47 17z"/> <path d="M2230 4414 c-30 -36 -25 -179 7 -189 20 -7 24 12 17 83 -6 51 -2 92 8 92 10 0 18 9 18 20 0 27 -25 24 -50 -6z"/> <path d="M1217 4395 c16 -19 37 -35 48 -35 11 0 31 -15 45 -33 18 -25 38 -29 82 -17 42 12 48 19 23 25 -19 4 -35 15 -35 25 0 9 19 11 43 5 32 -8 39 -4 27 14 -11 18 -43 22 -106 13 -59 -8 -101 -3 -122 13 -28 22 -29 21 -5 -10z"/> <path d="M2492 4394 c-32 -24 -33 -29 -4 -52 36 -30 92 9 77 53 -11 32 -28 32 -73 -1z"/> <path d="M1866 4364 c3 -23 22 -59 41 -80 43 -49 23 -66 -132 -114 -63 -19 -109 -43 -103 -53 6 -9 1 -17 -10 -17 -11 0 -19 25 -18 55 2 30 -4 70 -12 88 -11 24 -3 37 27 47 22 7 41 21 41 31 0 30 -31 22 -66 -17 -18 -19 -56 -37 -86 -40 -29 -2 -66 -20 -80 -39 -16 -21 -27 -25 -27 -10 -1 39 -56 30 -103 -17 -37 -37 -49 -39 -95 -18 -98 45 -232 79 -248 63 -52 -52 82 -145 142 -99 18 14 27 17 19 8 -8 -10 -6 -33 5 -53 16 -30 9 -38 -41 -49 -33 -7 -60 -21 -60 -32 0 -31 127 -75 155 -53 17 13 34 12 52 -2 15 -13 31 -18 37 -13 16 16 176 27 176 12 0 -7 -19 -15 -43 -17 -24 -2 -51 -15 -60 -29 -11 -18 -16 -19 -17 -2 0 14 -27 22 -68 20 -37 -2 -63 -12 -58 -21 6 -9 32 -13 57 -8 28 5 51 -2 57 -18 6 -15 30 -27 53 -27 23 0 36 8 30 19 -6 10 -1 25 12 33 14 9 18 6 9 -9 -10 -15 7 -28 47 -36 33 -6 61 -20 61 -29 0 -10 7 -17 15 -16 43 7 65 -6 65 -37 0 -22 6 -27 15 -13 26 40 145 56 145 20 0 -32 -20 -40 -83 -33 -19 1 -38 -5 -45 -15 -6 -11 -55 -11 -114 -2 -57 9 -112 12 -121 6 -9 -6 -17 -1 -17 10 0 24 -131 18 -154 -6 -9 -10 17 -13 58 -6 61 9 72 6 62 -20 -10 -25 1 -30 61 -23 43 5 73 0 73 -12 0 -12 10 -7 22 9 16 23 24 24 31 5 6 -14 28 -25 49 -25 21 0 38 -9 38 -20 0 -32 35 -23 49 13 7 19 1 41 -13 50 -19 12 -17 16 9 17 19 0 36 -11 37 -25 2 -14 4 -38 5 -55 2 -16 18 -32 36 -36 33 -6 40 39 11 69 -20 20 -17 51 3 39 40 -25 104 59 76 98 -15 20 -37 30 -50 22 -13 -8 -23 -5 -23 6 0 26 31 44 48 28 21 -22 72 -24 72 -4 0 10 -17 18 -38 18 -21 0 -43 11 -49 25 -8 18 -17 15 -33 -10 -28 -44 -72 -45 -88 -3 -8 20 -25 27 -46 19 -18 -7 -40 -1 -48 12 -12 19 -22 19 -46 -2 -23 -19 -32 -19 -32 -2 0 13 -11 17 -23 9 -16 -10 -20 -4 -12 17 17 44 -130 82 -168 43 -29 -29 -117 -17 -117 16 0 10 9 13 20 6 11 -7 36 -3 55 8 35 21 32 23 -51 32 -61 6 -75 23 -46 57 13 16 42 24 64 18 32 -8 35 -15 15 -27 -21 -13 -19 -17 8 -18 19 0 35 8 35 18 0 10 18 14 40 8 45 -12 52 -38 15 -53 -14 -5 -6 -11 18 -11 32 -2 42 10 42 48 0 27 -6 46 -12 42 -7 -4 -31 1 -53 11 -37 16 -37 17 5 9 24 -4 65 8 91 28 44 35 81 47 125 42 12 -1 22 -38 23 -83 1 -60 -4 -75 -22 -61 -17 15 -23 3 -20 -44 5 -86 5 -85 33 -57 20 20 19 28 -3 42 -21 13 -16 20 19 31 27 9 50 7 54 -5 15 -45 63 -94 78 -79 9 9 3 24 -12 34 -23 14 -24 22 -2 48 33 40 66 20 50 -30 -9 -29 -2 -38 30 -38 22 0 41 10 41 22 0 12 -14 17 -30 11 -27 -11 -27 -6 -1 45 41 80 173 108 143 30 -6 -17 2 -28 20 -28 37 0 91 50 74 68 -7 6 -2 12 11 12 13 0 24 -25 25 -55 l2 -55 15 50 c8 28 7 59 -2 69 -24 26 -21 56 3 41 11 -7 20 1 20 18 0 19 -11 26 -30 19 -22 -8 -27 -2 -18 21 9 24 4 29 -20 20 -17 -7 -32 -2 -32 10 0 19 39 31 83 25 7 -1 8 16 2 38 -10 40 -86 38 -101 -3 -4 -8 -20 -11 -36 -4 -16 6 -28 3 -26 -7 9 -51 -7 -51 -52 2 -45 51 -50 53 -44 15z m165 -93 c34 -33 39 -91 8 -91 -12 0 -15 -10 -7 -23 9 -14 5 -18 -9 -9 -16 10 -17 26 -2 53 14 27 14 39 0 39 -12 0 -22 -11 -22 -25 -1 -14 -9 -7 -18 15 -27 67 2 90 50 41z m-185 -139 c-27 -36 -43 -43 -62 -27 -18 15 -33 11 -55 -17 -30 -37 -30 -37 -25 2 4 25 32 49 76 64 100 34 106 32 66 -22z"/> <path d="M2370 4380 c-8 -14 -6 -30 4 -37 11 -7 25 -26 31 -43 8 -25 13 -23 25 7 19 45 -36 111 -60 73z"/> <path d="M2780 4375 c0 -16 7 -35 15 -43 15 -15 18 -25 23 -81 1 -19 14 -25 35 -17 22 8 29 5 20 -9 -8 -12 -4 -28 7 -35 34 -21 0 -53 -42 -40 -29 10 -35 5 -25 -21 11 -28 5 -31 -34 -19 -44 14 -45 13 -13 -19 19 -19 34 -42 34 -52 0 -11 9 -19 20 -19 11 0 20 23 20 50 0 28 12 50 27 50 14 0 52 32 84 70 33 39 74 70 93 70 23 0 31 10 23 30 -6 17 -1 30 11 30 12 0 22 14 22 30 0 33 -54 39 -98 12 -17 -11 -21 -28 -11 -45 14 -23 11 -23 -16 0 -34 27 -84 14 -65 -17 6 -9 2 -23 -8 -29 -11 -6 -25 -2 -32 9 -7 11 -23 15 -36 9 -13 -7 -6 3 16 22 32 28 33 32 6 23 -19 -7 -40 -3 -47 8 -21 34 5 43 51 18 32 -17 50 -18 66 -2 12 12 18 22 13 23 -5 0 -43 5 -84 11 -56 9 -75 4 -75 -17z"/> <path d="M2268 4357 c-7 -12 -1 -29 14 -38 80 -45 123 -100 113 -147 -9 -50 -4 -52 110 -34 8 1 15 17 15 35 0 30 -4 30 -40 -3 -35 -32 -40 -32 -40 -4 0 42 -78 174 -103 174 -11 0 -14 9 -7 20 7 11 -1 20 -18 20 -16 0 -36 -10 -44 -23z"/> <path d="M2558 4323 c-64 -82 -53 -99 35 -53 64 33 136 40 118 11 -26 -41 11 -122 41 -92 37 37 36 78 -2 64 -16 -7 -30 -3 -30 8 0 10 9 19 20 19 11 0 20 9 20 20 0 11 -7 18 -15 15 -8 -3 -16 4 -18 15 -2 11 5 18 15 15 10 -3 18 2 18 10 0 41 -165 15 -202 -32z"/> <path d="M1452 4328 c-27 -69 -15 -97 25 -61 20 18 42 27 50 20 7 -8 13 -3 13 9 0 41 -74 68 -88 32z"/> <path d="M1793 4310 c-7 -16 -35 -30 -63 -30 -56 0 -88 -50 -53 -85 16 -16 34 -9 68 27 74 78 101 118 80 118 -12 0 -26 -13 -32 -30z"/> <path d="M2607 4207 c2 -30 14 -57 26 -61 18 -6 22 27 10 99 -8 42 -40 7 -36 -38z"/> <path d="M2300 4205 c-49 -18 -110 -74 -115 -105 -4 -22 2 -20 22 6 25 31 30 31 40 4 15 -39 -69 -77 -92 -42 -9 14 -14 11 -15 -10 0 -64 22 -62 158 17 4 2 -3 18 -17 34 -21 25 -16 34 27 54 77 35 70 72 -8 42z"/> <path d="M1907 4107 c8 -14 -1 -28 -22 -32 -27 -7 -23 -14 22 -32 31 -13 64 -18 74 -12 29 17 74 -36 64 -75 -5 -20 1 -36 14 -36 13 0 17 11 9 25 -10 18 -6 17 14 -1 24 -23 22 -31 -10 -55 -31 -23 -34 -33 -13 -58 30 -36 61 -41 61 -10 0 12 -11 15 -25 7 -15 -8 -18 -7 -8 4 16 17 23 20 78 26 17 2 16 9 -5 22 -26 17 -25 19 5 20 19 0 35 -11 35 -25 1 -19 4 -19 17 1 9 14 31 20 50 13 18 -8 33 -4 33 7 0 12 5 35 12 52 17 45 -24 40 -72 -8 -40 -40 -40 -40 -42 5 -2 34 -5 36 -12 10 -5 -19 -22 -35 -37 -35 -36 0 -38 33 -4 47 20 8 20 10 0 11 -14 1 -25 15 -25 30 0 31 -42 52 -105 52 -23 0 -60 16 -82 35 -22 19 -34 24 -26 12z"/> <path d="M2470 4100 c-7 -11 -28 -20 -47 -20 -22 0 -36 -18 -39 -51 -2 -29 -17 -65 -34 -82 -42 -42 -39 -112 5 -103 19 3 38 23 42 44 4 23 -1 32 -15 23 -16 -9 -15 2 1 38 13 28 31 51 40 51 9 0 17 10 17 22 0 12 20 38 45 59 25 21 34 38 21 38 -13 1 -29 -8 -36 -19z"/> <path d="M2700 4082 c0 -24 -19 -42 -52 -51 -38 -9 -48 -22 -40 -47 11 -31 10 -31 -15 1 -15 19 -33 29 -40 21 -7 -7 -13 -7 -13 0 0 7 34 31 75 53 l75 39 -70 -7 c-38 -3 -76 -8 -84 -9 -7 -1 -10 -29 -6 -61 6 -45 -1 -62 -32 -72 -35 -11 -90 -103 -72 -121 36 -37 215 67 219 127 4 55 35 60 35 7 0 -21 11 -43 25 -49 15 -6 7 -16 -20 -24 -25 -8 -45 -21 -45 -30 0 -9 -27 -22 -60 -29 -33 -7 -60 -21 -60 -32 0 -25 12 -23 81 12 32 17 63 31 69 31 39 1 70 30 70 66 1 32 5 36 18 16 14 -23 19 -23 28 0 8 21 11 21 12 1 1 -15 13 -21 27 -14 14 7 12 1 -5 -14 -52 -46 -48 -82 8 -68 50 12 93 -17 47 -33 -14 -5 4 -8 40 -7 79 2 80 3 5 42 -33 17 -60 41 -60 53 0 15 9 14 29 -2 17 -14 48 -18 73 -11 27 9 38 7 30 -6 -26 -42 24 -42 60 0 24 27 27 37 8 26 -26 -15 -26 -13 -3 16 24 29 23 34 -5 34 -17 0 -32 -9 -32 -20 0 -26 -105 -2 -124 28 -8 12 -53 22 -100 22 l-86 0 7 75 c3 41 1 75 -5 75 -7 0 -12 -17 -12 -38z"/> <path d="M960 3849 c0 -16 16 -36 35 -43 19 -7 65 -44 101 -82 71 -76 105 -69 115 23 5 47 1 49 -46 31 -57 -22 -105 -11 -105 23 0 13 18 17 45 9 36 -10 33 -5 -15 28 -71 49 -130 54 -130 11z"/> <path d="M825 3700 c19 -77 75 -127 75 -68 0 17 -9 25 -20 18 -11 -7 -20 -4 -20 6 0 27 59 72 74 57 7 -7 0 -13 -16 -14 -16 0 -3 -22 32 -52 39 -33 51 -54 35 -61 -14 -5 -20 -18 -14 -28 6 -10 -3 -18 -21 -18 -18 0 -27 -9 -20 -20 20 -32 46 -23 60 20 7 22 26 40 41 40 16 0 29 9 29 20 0 11 10 20 21 20 12 0 16 -17 10 -38 -14 -41 49 -77 90 -52 11 8 34 2 50 -11 25 -20 28 -19 17 8 -16 41 0 42 63 1 27 -18 64 -27 82 -20 18 7 47 1 65 -14 67 -58 98 -55 94 8 -5 68 21 51 31 -20 4 -27 19 -53 34 -58 21 -7 22 0 4 33 -12 24 -16 67 -8 98 12 48 10 52 -17 30 -32 -27 -91 13 -62 42 7 7 -2 13 -21 13 -39 0 -44 -37 -6 -51 35 -14 34 -69 -2 -69 -15 0 -22 8 -16 19 6 10 3 24 -9 31 -11 7 -20 30 -20 51 0 48 -39 52 -42 4 -1 -21 -5 -25 -11 -10 -6 14 -22 25 -37 25 -15 0 -32 -11 -38 -25 -6 -14 -6 -1 0 28 13 64 -12 84 -75 58 -31 -12 -36 -19 -14 -20 35 -1 64 -53 46 -83 -6 -10 -35 -12 -63 -5 -39 9 -48 6 -37 -12 12 -20 7 -20 -27 -2 -23 12 -42 31 -42 42 0 10 -14 19 -32 19 -18 0 -66 27 -107 59 -121 96 -181 97 -156 1z"/> <path d="M2080 3730 c56 -59 49 -58 90 -18 17 18 38 27 46 19 7 -8 -7 -29 -32 -48 -66 -50 -34 -64 57 -26 80 34 110 76 40 58 -29 -8 -35 -2 -26 22 6 18 4 26 -5 18 -9 -8 -27 -6 -41 6 -17 14 -28 11 -37 -13 -11 -30 -16 -30 -62 0 -71 47 -84 39 -30 -18z"/> <path d="M2621 3751 c-27 -14 -60 -23 -73 -17 -13 5 -31 -2 -39 -16 -11 -17 -6 -21 18 -12 42 16 43 -14 1 -56 -18 -17 -28 -37 -21 -43 14 -14 73 42 73 69 0 19 57 53 82 48 6 -1 11 11 11 27 0 16 0 29 -1 28 -1 0 -24 -13 -51 -28z"/> <path d="M2706 3754 c5 -15 -8 -38 -30 -52 -31 -19 -37 -19 -25 0 10 15 7 19 -8 10 -27 -17 -28 -32 -6 -67 19 -31 103 -50 103 -24 0 11 -14 19 -31 19 -25 0 -26 5 -5 28 14 15 34 23 44 17 11 -7 13 4 5 23 -7 20 -13 44 -13 54 0 10 -10 18 -22 18 -12 0 -18 -12 -12 -26z"/> <path d="M3040 3763 c0 -18 -14 -24 -40 -17 -22 6 -36 4 -31 -5 5 -8 -3 -14 -19 -14 -16 0 -24 7 -18 16 13 22 2 21 -61 -3 -44 -16 -50 -28 -39 -73 10 -37 7 -49 -9 -39 -31 19 -29 -13 2 -47 17 -18 17 -22 1 -14 -24 14 -59 -61 -38 -82 7 -6 12 1 12 17 0 21 26 28 95 28 61 0 93 -8 91 -23 -7 -36 63 -9 90 35 22 35 20 38 -22 30 -63 -11 -111 17 -62 36 20 8 42 2 51 -12 12 -19 16 -20 17 -2 0 14 13 20 30 13 28 -10 67 43 46 64 -10 10 -115 -20 -196 -57 -27 -12 -55 -24 -61 -27 -6 -2 -10 13 -10 34 0 20 3 34 7 30 10 -10 126 30 168 58 23 16 28 32 15 52 -15 23 -18 24 -19 2z"/> <path d="M2340 3699 c0 -11 32 -19 70 -19 91 0 91 29 0 34 -39 2 -70 -5 -70 -15z"/> <path d="M1943 3633 c-19 -68 14 -130 55 -104 28 17 29 71 2 71 -11 0 -20 9 -20 20 0 11 14 20 30 20 37 0 38 -55 4 -138 l-26 -62 -42 52 c-35 42 -49 48 -79 31 -20 -12 -26 -22 -12 -22 14 -1 25 -13 25 -28 0 -67 80 -106 118 -56 35 47 240 28 210 -20 -6 -10 -19 -13 -28 -7 -9 6 -23 1 -30 -11 -10 -14 -21 -15 -39 0 -24 20 -51 9 -51 -21 0 -18 100 -12 132 7 12 8 42 -10 68 -39 35 -40 37 -49 11 -39 -19 7 -39 13 -44 13 -5 0 -3 11 5 23 10 16 3 20 -20 10 -20 -7 -48 -13 -64 -13 -15 0 -28 -9 -28 -20 0 -11 20 -17 45 -15 37 4 44 -4 41 -49 -4 -62 70 -49 139 24 44 48 44 53 -5 66 -22 5 -48 32 -58 59 -10 26 -31 49 -45 49 -43 1 -197 46 -197 58 0 6 19 5 43 -3 36 -12 41 -8 27 24 -9 20 -18 55 -20 77 -14 123 -117 152 -147 43z"/> <path d="M2300 3631 c0 -43 127 -161 138 -128 4 13 -7 34 -26 48 -19 14 -28 37 -20 56 7 18 3 33 -8 33 -12 0 -35 5 -52 12 -21 8 -32 1 -32 -21z"/> <path d="M2450 3640 c7 -11 3 -20 -9 -20 -11 0 -21 -14 -21 -32 0 -17 11 -28 25 -23 32 10 45 95 15 95 -12 0 -17 -9 -10 -20z"/> <path d="M1620 3623 c0 -30 77 -87 99 -74 11 7 21 3 21 -10 0 -16 -20 -20 -59 -12 -52 10 -57 7 -45 -26 14 -38 19 -41 69 -41 17 1 15 7 -5 20 -26 17 -25 19 5 20 48 0 44 -45 -7 -76 -33 -21 -36 -32 -17 -55 31 -38 59 -37 59 2 0 19 -9 26 -23 17 -15 -9 -18 -5 -9 9 20 33 52 9 52 -38 0 -22 10 -39 22 -39 12 0 17 13 11 29 -7 19 -1 25 18 18 16 -6 29 -1 29 11 0 12 -10 22 -21 22 -12 0 -16 9 -9 20 7 11 -4 21 -24 21 -33 2 -33 3 3 17 36 14 36 16 2 29 -19 7 -30 26 -24 41 6 18 -11 37 -48 53 -33 13 -59 32 -59 41 0 10 -9 18 -20 18 -11 0 -20 -8 -20 -17z"/> <path d="M2685 3500 c2 -22 11 -40 19 -40 9 0 16 -7 16 -16 0 -10 -29 -15 -65 -13 -36 2 -63 14 -60 26 3 13 -4 23 -15 23 -11 0 -20 -10 -20 -21 0 -12 -9 -16 -20 -9 -11 7 -15 -1 -8 -17 6 -16 1 -35 -11 -42 -11 -7 -21 -22 -21 -33 0 -11 9 -15 20 -8 11 7 20 2 20 -10 0 -12 29 -35 65 -50 49 -21 55 -29 24 -29 -23 -1 -59 -14 -80 -30 -42 -32 -28 -38 74 -32 34 2 61 -10 74 -33 19 -33 21 -33 33 -2 20 50 2 107 -31 99 -16 -3 -22 0 -14 8 8 9 5 27 -8 42 -12 15 -15 27 -7 27 8 0 5 12 -8 27 -13 16 -44 23 -72 18 -40 -8 -48 -3 -38 22 7 19 22 26 35 18 13 -7 32 -15 43 -16 11 -2 31 -4 45 -6 14 -2 25 -21 25 -43 0 -22 9 -40 20 -40 11 0 20 11 20 25 1 17 7 15 20 -5 13 -20 19 -22 20 -5 0 14 9 25 20 25 29 0 25 -95 -5 -108 -20 -9 -20 -15 -1 -23 19 -9 18 -23 -5 -58 -20 -31 -26 -66 -17 -102 l14 -55 24 58 c14 33 17 67 7 80 -20 25 -2 48 38 48 15 0 22 -9 15 -20 -7 -11 -3 -20 7 -20 11 0 24 11 29 25 4 14 5 5 1 -20 -4 -25 1 -45 13 -45 11 0 20 14 20 31 0 17 8 26 19 20 10 -6 33 9 50 34 17 25 43 45 56 45 14 0 26 11 28 25 5 59 8 65 27 65 28 0 25 -75 -3 -84 -13 -5 -25 -30 -27 -57 -3 -27 -16 -47 -29 -44 -14 4 -18 -4 -9 -18 10 -16 4 -20 -20 -10 -46 17 -112 -19 -112 -62 0 -28 -3 -28 -27 4 -26 36 -73 29 -73 -11 0 -11 11 -14 25 -5 15 9 14 1 -4 -21 -16 -20 -31 -48 -33 -62 -2 -14 -10 -45 -18 -70 -13 -42 -10 -44 43 -31 72 18 110 49 95 78 -6 13 3 6 21 -16 24 -30 25 -42 6 -55 -14 -8 -16 -16 -4 -16 12 0 32 11 45 24 13 13 29 17 37 10 17 -17 -31 -74 -63 -74 -14 0 -24 -16 -23 -35 2 -24 -9 -33 -34 -29 -24 4 -34 -3 -28 -20 4 -14 21 -26 37 -26 15 0 35 -9 43 -20 22 -30 56 32 36 68 -11 19 -3 40 25 62 52 43 62 100 17 100 -29 1 -29 3 -3 20 45 29 80 24 67 -10 -14 -36 15 -40 49 -6 13 13 24 15 24 4 0 -11 -11 -31 -24 -44 -19 -19 -18 -24 5 -24 35 1 129 96 112 114 -7 6 -102 12 -213 12 -110 -1 -200 7 -200 17 0 9 18 17 40 17 24 0 40 13 40 32 0 23 12 29 41 22 36 -9 139 64 139 98 0 22 56 66 68 54 6 -7 12 2 12 21 0 18 8 33 18 33 27 0 47 103 24 126 -15 15 -33 11 -58 -12 -20 -19 -45 -34 -54 -34 -9 0 -40 -26 -69 -58 -51 -59 -241 -110 -241 -65 0 26 54 44 90 30 17 -6 30 -1 30 11 0 12 13 22 29 22 33 0 77 68 57 87 -21 22 -97 14 -122 -11 -19 -19 -24 -8 -24 50 0 41 -9 74 -19 74 -11 0 -14 -43 -7 -105 6 -58 6 -100 -1 -94 -6 6 -14 40 -17 75 -4 63 -23 82 -45 46 -6 -10 0 -23 14 -29 14 -5 0 -11 -30 -11 -55 -2 -73 24 -35 48 13 8 9 24 -10 43 -17 17 -25 38 -19 49 6 10 2 18 -9 18 -11 0 -18 -18 -17 -40z"/> <path d="M1029 3482 c6 -10 30 -13 54 -7 30 8 39 4 29 -12 -8 -13 -5 -23 7 -23 11 0 21 -18 21 -40 0 -22 13 -40 30 -40 17 0 30 -10 30 -21 0 -12 14 -8 31 10 37 36 89 41 89 8 0 -14 25 -18 70 -11 39 6 70 5 70 -2 0 -21 -102 -64 -153 -64 -55 0 -78 -31 -35 -48 49 -19 128 -14 128 7 0 11 15 14 33 7 21 -8 29 -5 21 8 -8 12 6 17 37 11 41 -8 49 -2 47 38 0 26 -6 36 -11 22 -6 -14 -19 -25 -30 -25 -11 0 -13 10 -6 21 22 36 -55 80 -90 52 -23 -18 -25 -17 -12 4 10 17 6 34 -11 45 -36 22 -104 23 -90 1 6 -9 -14 -28 -44 -40 -50 -22 -51 -21 -15 6 21 17 32 36 25 44 -7 7 -27 1 -45 -14 -17 -14 -30 -17 -28 -7 8 40 -2 70 -20 59 -10 -6 -24 -3 -31 9 -7 11 -35 20 -62 20 -28 0 -45 -8 -39 -18z"/> <path d="M850 3386 c0 -82 -50 -105 -107 -50 -83 79 -149 -23 -77 -120 37 -50 39 -61 14 -77 -42 -26 -80 -24 -80 5 0 18 -6 18 -25 -1 -28 -28 17 -70 52 -48 11 6 15 -2 9 -18 -16 -41 27 -92 85 -100 28 -4 58 -27 69 -53 14 -33 31 -43 60 -35 22 6 51 11 64 11 14 0 20 13 13 32 -9 23 -17 25 -28 7 -10 -17 -19 -10 -29 20 -10 31 -25 42 -52 35 -25 -7 -38 0 -38 19 0 21 13 26 45 17 25 -7 61 -18 80 -23 19 -5 35 -1 35 11 0 11 -16 29 -35 40 -33 20 -33 21 0 21 19 1 35 10 35 20 0 11 -15 14 -33 7 -23 -9 -29 -5 -19 11 9 14 2 23 -16 23 -17 0 -26 -12 -21 -26 15 -37 -100 -41 -131 -4 -21 25 -19 30 13 31 35 0 35 1 2 21 -20 11 -31 29 -24 40 6 10 20 13 30 7 11 -6 19 -3 19 8 0 11 19 14 42 8 31 -8 35 -15 15 -27 -16 -11 -18 -18 -4 -18 37 0 82 65 51 75 -31 11 6 65 43 65 14 0 12 -8 -4 -18 -21 -13 -17 -24 19 -49 56 -39 86 -43 65 -8 -11 19 -8 20 14 2 16 -12 47 -28 69 -34 24 -7 19 -9 -15 -5 -38 4 -55 -3 -55 -23 0 -22 12 -26 45 -15 25 8 68 15 95 17 50 3 79 26 79 63 0 11 -8 7 -18 -10 -17 -26 -31 -25 -115 8 -53 20 -107 37 -121 38 -14 0 -25 13 -25 27 0 15 -13 27 -29 27 -17 0 -25 12 -20 26 5 14 -2 41 -16 60 -22 30 -25 25 -25 -40z"/> <path d="M2420 3390 c-20 -24 -20 -36 1 -61 20 -25 29 -26 43 -5 11 16 14 0 10 -44 -5 -41 -18 -68 -32 -65 -13 3 -38 -8 -54 -25 -37 -36 -33 -37 50 -8 35 13 60 33 56 45 -4 13 7 34 24 48 29 23 29 27 -3 46 -19 12 -35 39 -35 60 0 47 -26 50 -60 9z"/> <path d="M2040 3301 c0 -13 -19 -17 -50 -9 -31 8 -50 4 -50 -10 0 -12 -12 -22 -28 -22 -15 0 -32 -16 -37 -36 -8 -30 4 -35 73 -35 l82 1 -7 -75 c-3 -44 3 -75 15 -75 12 0 22 17 22 38 0 21 13 43 29 49 22 8 26 -4 17 -56 -8 -51 0 -77 32 -109 23 -23 42 -34 42 -23 0 10 -14 32 -31 50 -29 28 -29 31 0 31 34 0 42 31 13 49 -10 6 -23 0 -29 -14 -6 -15 -10 -11 -11 10 -1 19 8 35 21 35 13 0 7 18 -13 40 -25 27 -42 33 -51 19 -9 -15 -18 -12 -26 9 -7 21 -1 32 19 32 21 0 29 16 24 53 -6 52 -56 94 -56 48z m34 -68 c7 -7 -11 -13 -41 -13 -29 0 -60 -1 -67 -1 -8 -1 -18 7 -21 17 -7 21 108 18 129 -3z"/> <path d="M1680 3262 c0 -12 -19 -22 -41 -22 -23 0 -36 -9 -29 -20 8 -13 26 -13 53 2 22 11 45 16 51 10 7 -6 -14 -21 -46 -33 -32 -12 -74 -36 -93 -53 -44 -41 -48 -110 -4 -93 17 7 26 26 20 45 -7 20 6 43 32 59 37 23 41 23 31 -4 -6 -17 -1 -35 12 -42 18 -8 18 -14 -1 -23 -41 -19 -29 -82 19 -95 25 -6 49 -5 55 3 6 8 35 27 65 42 30 15 50 36 44 46 -7 10 -25 7 -41 -6 -16 -14 -28 -16 -26 -6 8 38 -5 117 -14 93 -6 -14 -19 -20 -29 -14 -10 6 -18 -3 -18 -21 0 -18 9 -27 20 -20 32 20 23 -23 -10 -50 -17 -14 -37 -19 -45 -10 -8 8 -4 19 9 24 18 6 19 23 4 62 -11 29 -14 47 -6 39 8 -8 26 1 41 20 26 33 28 33 54 0 15 -19 33 -29 40 -21 23 23 14 46 -18 46 -17 0 -26 9 -19 20 7 11 -1 20 -17 20 -16 0 -44 5 -61 12 -18 7 -32 2 -32 -10z"/> <path d="M1232 3180 c12 -16 20 -57 17 -91 -4 -57 0 -61 63 -63 38 -1 68 8 68 20 0 15 8 14 24 -2 34 -34 109 -30 109 6 0 17 -14 31 -31 32 -21 1 -23 5 -7 11 31 13 13 47 -24 47 -18 0 -24 -15 -17 -45 11 -43 9 -43 -25 -11 -29 28 -31 39 -10 65 17 20 18 31 4 31 -12 0 -31 -18 -43 -40 -36 -66 -106 -94 -76 -30 17 37 27 44 39 26 9 -14 16 -17 16 -6 0 40 -41 82 -52 54 -9 -21 -17 -21 -44 0 -28 22 -30 22 -11 -4z"/> <path d="M2555 3166 c-19 -5 -35 -17 -35 -27 0 -26 27 -24 56 5 13 13 24 18 24 11 0 -6 -14 -26 -31 -44 -29 -28 -28 -31 6 -31 21 0 43 5 49 11 15 14 -4 90 -21 87 -7 -2 -29 -7 -48 -12z"/> <path d="M1894 3147 c-28 -27 -13 -108 26 -147 25 -25 37 -58 32 -88 -10 -55 59 -63 105 -12 23 26 25 26 16 -4 -8 -24 -2 -31 19 -22 44 17 24 77 -23 69 -31 -5 -34 -1 -14 19 34 35 32 58 -5 58 -16 0 -31 -16 -31 -35 -1 -25 -7 -22 -21 13 -10 26 -14 62 -9 80 6 18 1 46 -9 62 -15 23 -19 18 -20 -25 0 -30 -11 -55 -25 -55 -17 -1 -15 -7 5 -20 18 -12 20 -20 6 -20 -38 0 -52 39 -25 72 26 30 0 82 -27 55z"/> <path d="M2480 3145 c0 -14 -23 -25 -52 -25 -32 0 -48 -9 -43 -25 5 -14 32 -22 62 -19 40 5 53 -2 53 -29 0 -27 -5 -30 -24 -11 -41 41 -50 27 -46 -71 2 -52 -6 -102 -18 -112 -14 -10 -11 -13 8 -8 20 6 30 33 29 82 -1 75 35 92 48 23 8 -42 60 -100 75 -85 5 6 -4 24 -21 41 -34 34 -42 63 -13 45 20 -12 49 48 31 66 -6 7 -20 -1 -30 -18 -13 -21 -19 -10 -19 41 -1 64 -39 166 -40 105z"/> <path d="M1041 3116 c16 -18 38 -28 49 -22 11 5 2 -6 -20 -23 -36 -30 -41 -30 -65 2 -14 19 -26 31 -27 26 0 -5 -4 -25 -8 -44 -4 -21 6 -35 25 -35 17 0 26 -6 19 -13 -8 -7 -4 -25 9 -40 17 -21 15 -27 -9 -27 -17 0 -34 11 -39 24 -15 47 -29 -33 -14 -84 9 -29 16 -36 17 -17 2 34 32 38 76 11 13 -8 28 -6 35 4 6 10 2 22 -8 25 -12 4 -9 38 9 87 20 56 29 66 29 35 1 -48 15 -55 59 -27 15 10 21 28 13 40 -7 12 -4 22 8 22 11 0 21 9 21 20 0 11 -13 20 -30 20 -16 0 -30 -10 -30 -21 0 -12 -9 -16 -20 -9 -12 7 -15 21 -9 31 6 11 -2 19 -18 19 -16 0 -46 6 -66 14 -32 12 -32 10 -6 -18z"/> <path d="M2278 3126 c-1 -9 -1 -41 2 -73 3 -51 0 -54 -38 -34 -23 12 -42 14 -42 5 0 -32 69 -76 113 -73 28 2 40 -6 34 -22 -6 -14 -28 -20 -53 -13 -39 10 -41 7 -16 -23 22 -27 33 -29 58 -8 16 14 35 25 42 25 22 0 19 59 -4 88 -19 24 -19 26 4 13 19 -11 24 -8 18 11 -6 15 -25 25 -43 22 -22 -4 -33 8 -33 34 0 38 -38 81 -42 48z"/> <path d="M2653 3079 c-29 -23 -53 -55 -53 -70 0 -38 33 -37 47 1 6 16 24 24 40 18 20 -7 28 5 28 41 0 61 3 61 -62 10z"/> <path d="M2658 2968 c0 -32 -6 -47 -11 -33 -10 24 -67 36 -67 14 0 -6 24 -33 53 -60 34 -31 43 -49 25 -50 -15 -1 -8 -11 17 -23 27 -14 45 -40 45 -68 0 -25 11 -52 23 -60 16 -10 20 -3 10 20 -7 20 -13 53 -13 74 0 22 -14 39 -35 40 -24 1 -27 4 -8 12 23 9 23 14 1 27 -15 9 -21 23 -13 31 8 7 28 2 45 -12 25 -21 30 -19 30 9 0 18 -8 28 -18 22 -15 -9 -45 33 -50 72 -6 45 -32 34 -34 -15z"/> <path d="M1120 2937 c0 -11 11 -13 23 -5 16 10 20 4 11 -19 -7 -18 -4 -33 7 -33 10 0 19 11 19 25 1 17 7 15 20 -5 16 -25 19 -23 20 10 0 29 -14 41 -50 43 -28 1 -50 -6 -50 -16z"/> <path d="M3290 2906 c-72 -18 -77 -44 -8 -40 58 3 67 -2 64 -38 -4 -33 5 -41 40 -38 24 3 58 6 76 7 39 4 42 63 3 63 -15 0 -21 -10 -13 -23 9 -14 5 -18 -8 -9 -12 7 -17 28 -10 45 9 25 3 29 -31 18 -26 -8 -43 -5 -43 8 0 22 -5 22 -70 7z"/> <path d="M1130 2840 c7 -11 -2 -20 -20 -20 -18 0 -27 -8 -21 -18 6 -10 -2 -23 -18 -29 -21 -8 -25 -1 -16 23 11 30 8 30 -24 -2 -29 -29 -40 -31 -53 -11 -19 31 -171 44 -188 17 -7 -11 -21 -20 -32 -20 -11 0 -15 9 -8 20 19 31 -20 24 -88 -15 -78 -44 -77 -56 3 -94 98 -47 125 -100 64 -128 -30 -14 -49 -15 -49 -3 0 11 -11 20 -23 20 -13 0 -18 -6 -11 -13 7 -7 3 -31 -9 -55 -18 -35 -17 -38 5 -17 49 47 84 30 71 -34 -6 -33 -3 -65 8 -72 22 -13 6 -49 -22 -49 -10 0 -12 16 -5 35 9 26 -1 22 -42 -14 -46 -42 -57 -45 -73 -20 -34 54 13 99 58 54 15 -15 27 -6 42 33 30 78 28 80 -39 32 -33 -23 -60 -34 -60 -23 0 21 -50 19 -71 -2 -13 -12 86 -159 116 -172 8 -3 15 -19 15 -34 0 -16 12 -23 29 -17 17 7 23 25 16 45 -10 26 -7 28 16 11 16 -12 56 -29 89 -36 33 -8 78 -19 100 -24 32 -8 34 -6 11 10 -17 11 -25 25 -18 31 17 17 79 -10 67 -30 -6 -9 -2 -21 8 -28 10 -6 23 3 29 19 7 17 3 30 -8 30 -10 0 -19 10 -19 21 0 12 21 19 47 16 55 -7 112 33 115 80 1 23 4 25 12 7 5 -15 -6 -45 -27 -67 -36 -40 -36 -40 22 -34 32 4 62 21 68 37 8 27 5 27 -27 0 -34 -28 -35 -27 -8 15 34 56 90 58 104 5 10 -40 66 -75 87 -53 7 6 5 36 -2 67 -14 53 -16 54 -42 18 -25 -35 -27 -33 -23 20 3 42 -4 57 -26 53 -21 -4 -18 4 9 25 21 16 55 30 76 30 21 0 32 9 25 20 -23 37 -85 21 -119 -31 -18 -27 -27 -59 -21 -70 7 -10 3 -19 -9 -19 -11 0 -21 11 -21 25 -1 19 -4 19 -16 1 -9 -15 -26 -17 -43 -6 -19 11 -37 6 -55 -16 -24 -32 -25 -31 -14 1 7 20 3 35 -10 35 -37 0 -49 -58 -19 -94 24 -29 23 -32 -10 -20 -20 8 -39 14 -43 14 -3 0 -2 17 4 38 5 21 -1 44 -13 51 -12 8 -21 7 -19 -3 8 -47 -4 -107 -20 -97 -10 6 -22 1 -26 -12 -5 -13 -19 -17 -32 -9 -29 17 -32 72 -4 72 27 0 25 74 -2 91 -16 10 -14 19 5 31 17 11 19 17 4 18 -13 0 -38 5 -55 12 -22 9 -32 1 -32 -25 1 -31 4 -32 19 -7 15 23 19 20 16 -14 -2 -31 -10 -38 -27 -24 -32 26 -48 119 -20 116 68 -8 101 6 52 22 -48 15 -48 16 -5 18 54 2 61 42 7 42 -20 0 -48 13 -61 29 -35 42 -17 102 27 95 21 -4 31 2 23 15 -22 35 30 24 105 -23 47 -29 74 -36 79 -21 5 16 23 17 58 4 68 -26 73 -25 61 21 -6 22 -2 40 8 40 10 0 18 14 18 30 0 17 -10 30 -21 30 -12 0 -16 -9 -9 -20z m-290 -490 c0 -50 -50 -82 -72 -46 -8 13 -5 17 7 9 11 -7 26 1 33 19 17 44 16 48 -17 48 -16 0 -33 8 -39 17 -6 10 11 13 39 8 35 -7 49 -23 49 -55z"/> <path d="M1443 2835 c-29 -29 -167 -35 -185 -9 -7 10 -19 9 -27 -4 -7 -12 -4 -22 8 -22 11 0 22 -16 23 -35 1 -21 5 -25 11 -10 6 14 19 25 30 25 11 0 13 -10 5 -23 -8 -13 -3 -18 14 -12 15 5 26 21 23 33 -4 18 5 18 35 2 23 -12 50 -16 60 -10 11 7 20 4 20 -7 0 -10 -14 -24 -32 -31 -44 -17 -52 -15 -38 8 18 29 -14 23 -60 -11 -34 -26 -36 -33 -10 -49 23 -15 25 -27 8 -55 -17 -26 -17 -41 0 -55 33 -30 112 -36 112 -9 0 13 -13 18 -30 12 -19 -7 -30 0 -30 19 0 17 9 25 19 19 24 -15 65 58 45 81 -8 9 3 3 25 -13 35 -26 37 -26 25 7 -11 29 -6 34 22 25 29 -9 36 1 38 54 2 52 0 56 -11 19 -12 -42 -17 -43 -52 -17 -34 24 -36 33 -13 61 32 38 2 44 -35 7z"/> <path d="M1660 2841 c0 -11 -13 -15 -30 -8 -16 6 -30 1 -30 -11 0 -12 10 -22 21 -22 25 0 4 -83 -26 -102 -12 -8 -11 -27 2 -50 11 -21 26 -63 32 -93 12 -58 51 -76 51 -24 0 17 -8 26 -18 20 -10 -6 -13 8 -7 31 9 37 13 39 29 10 10 -18 27 -28 37 -21 33 20 20 108 -21 144 -47 40 -51 65 -12 65 15 0 33 13 39 29 8 20 1 25 -21 17 -22 -9 -28 -5 -18 11 8 12 5 23 -7 23 -11 0 -21 -9 -21 -19z"/> <path d="M3258 2855 c-2 -8 -5 -24 -8 -35 -3 -11 -6 -27 -8 -35 -1 -8 -10 -3 -19 12 -10 15 -42 23 -75 19 l-58 -6 60 -36 60 -36 -57 12 c-36 7 -52 4 -43 -9 7 -12 -2 -21 -20 -21 -41 0 -96 -53 -81 -78 6 -10 -7 -14 -29 -8 -22 6 -40 2 -40 -9 0 -29 73 -44 97 -20 11 11 16 31 10 45 -10 26 62 54 168 67 14 2 25 16 25 32 0 16 13 36 29 45 20 12 23 26 10 46 -10 17 -20 23 -21 15z"/> <path d="M487 2808 c-12 -29 94 -149 129 -147 8 0 -3 13 -25 29 -21 16 -32 36 -24 43 7 8 -2 30 -20 50 -18 21 -24 37 -12 37 12 0 26 -11 32 -25 7 -18 15 -19 26 -3 10 12 31 27 47 33 17 7 -9 13 -56 13 -60 2 -89 -7 -97 -30z"/> <path d="M1964 2826 c-20 -7 -17 -17 10 -40 20 -16 25 -24 12 -17 -13 6 -33 -4 -44 -24 -12 -19 -21 -27 -21 -18 -1 10 -16 6 -34 -10 -26 -21 -35 -21 -42 -2 -12 36 -45 31 -45 -6 0 -17 8 -26 18 -20 10 6 23 -2 29 -18 13 -35 106 2 122 49 5 17 5 -2 0 -41 -8 -62 -2 -75 51 -106 34 -20 55 -45 48 -56 -8 -14 -20 -13 -34 1 -28 28 -54 28 -54 1 0 -12 9 -16 20 -9 11 7 20 3 20 -9 0 -11 19 -21 43 -21 37 0 41 -8 30 -73 -22 -135 110 -223 254 -168 35 13 51 14 43 1 -7 -11 -4 -20 7 -20 36 0 41 59 7 84 -36 27 -52 136 -20 136 10 0 13 8 7 18 -6 9 7 40 29 68 55 70 50 82 -10 22 -27 -27 -50 -59 -50 -70 0 -12 -14 -7 -31 11 -37 36 -125 23 -164 -25 -28 -35 -28 -35 -60 39 -30 71 22 129 64 71 31 -42 51 -44 51 -4 0 17 -7 28 -15 26 -24 -7 -110 46 -97 59 7 6 -1 26 -16 43 -25 28 -24 38 8 77 25 31 42 38 51 23 8 -12 2 -30 -13 -40 -19 -12 -20 -17 -4 -18 13 0 34 16 46 35 19 29 21 26 11 -19 -9 -44 -5 -53 20 -43 19 7 26 25 19 45 -10 26 -7 27 13 7 30 -30 117 -34 117 -5 0 11 -22 20 -49 20 -27 0 -54 8 -60 19 -7 10 -29 15 -51 11 -22 -4 -44 1 -51 11 -6 11 -25 19 -41 19 -17 0 -25 -9 -19 -19 7 -10 -7 -29 -30 -41 -35 -19 -40 -17 -35 12 6 37 -18 51 -60 34z m347 -348 c8 -12 2 -30 -13 -39 -16 -10 -32 -8 -40 5 -9 13 -22 5 -37 -21 -15 -28 -15 -43 -2 -43 12 0 21 7 21 16 0 8 18 15 40 15 51 0 51 -41 1 -94 l-39 -42 12 43 c6 24 1 42 -12 42 -37 0 -26 -96 13 -106 26 -7 24 -10 -10 -12 -37 -2 -45 8 -45 58 0 33 -8 60 -17 60 -10 0 -13 -24 -7 -54 9 -47 7 -50 -21 -25 -17 16 -27 35 -23 43 5 7 0 19 -11 25 -10 7 -14 26 -8 42 9 22 19 24 37 9 19 -16 25 -13 23 13 -5 53 112 108 138 65z"/> <path d="M2762 2826 c-1 -13 9 -48 22 -77 18 -40 18 -61 0 -90 -33 -52 -2 -50 44 4 28 32 30 46 11 58 -14 8 -37 41 -51 72 -13 31 -25 46 -26 33z"/> <path d="M2535 2772 c-42 -32 -46 -61 -7 -45 16 5 45 -9 65 -33 37 -44 37 -44 -6 -8 -42 35 -84 18 -58 -24 6 -9 -3 -29 -19 -42 -34 -28 -39 -60 -10 -60 11 0 20 13 20 28 0 36 35 31 106 -16 30 -21 61 -31 69 -24 20 20 24 72 5 72 -9 0 -14 16 -11 35 8 52 -51 135 -72 101 -12 -19 -16 -17 -17 9 0 41 -17 43 -65 7z"/> <path d="M3320 2732 c0 -8 9 -32 21 -53 27 -52 99 -52 99 0 0 47 -32 71 -52 38 -9 -15 -5 -18 12 -7 18 11 21 8 11 -8 -11 -19 -24 -16 -53 10 -21 19 -38 28 -38 20z"/> <path d="M2389 2705 c-11 -8 -22 -37 -24 -65 -3 -48 -2 -48 26 -11 16 21 29 50 29 65 0 30 -2 31 -31 11z"/> <path d="M3229 2699 c-7 -11 -27 -18 -46 -15 -46 7 -83 -20 -82 -60 0 -25 7 -22 27 14 32 58 58 14 27 -45 -14 -28 -13 -34 5 -23 16 10 21 2 17 -22 -4 -21 -25 -40 -47 -43 -40 -5 -40 -5 0 14 33 15 34 18 6 20 -58 2 -59 -35 -1 -64 34 -16 53 -40 49 -61 -4 -23 8 -34 35 -34 23 0 41 8 41 18 0 20 110 69 164 73 51 3 67 26 40 53 -19 19 -24 18 -24 -3 0 -15 -6 -22 -13 -15 -7 8 -25 4 -40 -9 -15 -12 -27 -15 -27 -7 0 8 -15 3 -34 -13 -20 -16 -28 -17 -19 -3 8 14 -3 33 -29 47 -30 16 -39 16 -29 1 7 -12 4 -22 -8 -22 -11 0 -21 -10 -21 -21 0 -12 8 -16 18 -10 10 6 13 -9 6 -34 -10 -37 -14 -38 -20 -10 -4 19 -13 35 -21 35 -8 0 -11 32 -7 70 5 39 16 70 25 70 28 0 99 84 87 103 -15 24 -63 21 -79 -4z"/> <path d="M990 2672 c-61 -44 -98 -240 -43 -221 24 7 78 16 120 18 69 4 127 44 100 70 -5 6 -19 -5 -29 -24 -11 -19 -29 -35 -39 -35 -28 0 -23 55 6 68 14 6 5 7 -18 1 -44 -11 -56 31 -18 65 10 9 11 5 3 -9 -9 -16 -2 -25 19 -25 21 0 29 11 22 29 -6 15 0 32 13 37 18 7 18 15 -1 35 -20 22 -30 20 -55 -12 -25 -32 -28 -33 -18 -4 15 42 -11 45 -62 7z"/> <path d="M2169 2671 c21 -17 30 -32 20 -32 -11 -1 2 -10 28 -20 28 -12 43 -30 37 -47 -15 -39 71 -52 117 -19 20 15 28 27 17 27 -11 0 -29 -9 -41 -21 -28 -28 -72 26 -72 91 0 51 -23 66 -45 30 -8 -13 -27 -13 -56 1 -42 20 -43 20 -5 -10z"/> <path d="M3310 2637 c-11 -10 -38 -32 -60 -49 -39 -30 -39 -30 2 -10 29 14 49 13 64 -2 15 -15 31 -12 54 11 28 28 28 33 3 33 -16 0 -33 8 -36 18 -4 9 -16 9 -27 -1z"/> <path d="M1135 2601 c-8 -28 -1 -37 26 -35 21 1 35 17 33 38 -3 48 -47 46 -59 -3z"/> <path d="M2825 2627 c-14 -6 -25 -30 -24 -54 0 -40 2 -40 27 -8 14 19 32 29 39 21 7 -7 13 2 13 21 0 34 -11 38 -55 20z"/> <path d="M520 2560 c0 -11 13 -20 28 -20 16 0 32 -11 37 -24 4 -14 13 -5 20 20 9 36 3 44 -37 44 -26 0 -48 -9 -48 -20z"/> <path d="M2510 2540 c-38 -16 -37 -17 6 -19 26 0 41 -10 34 -21 -7 -12 -21 -15 -31 -9 -11 6 -19 2 -19 -10 0 -11 -19 -21 -42 -21 -38 0 -40 4 -15 35 25 32 24 32 -8 7 -20 -15 -32 -32 -26 -37 5 -6 1 -26 -10 -46 -22 -41 -4 -105 24 -87 10 6 13 29 6 50 -13 42 5 46 107 26 60 -12 61 -14 31 -60 -17 -26 -39 -43 -49 -37 -33 21 -19 -16 17 -44 32 -25 32 -26 -5 -13 -35 12 -37 10 -13 -20 16 -19 20 -34 10 -35 -9 0 -1 -9 18 -21 51 -29 72 -7 62 67 -5 36 5 97 21 135 17 39 31 58 31 43 1 -15 13 -23 28 -17 14 6 26 -2 26 -17 0 -15 -7 -23 -16 -17 -9 6 -17 1 -17 -11 0 -11 7 -21 15 -21 64 2 85 118 25 134 -22 6 -40 18 -40 27 0 10 -25 15 -55 13 -35 -3 -53 5 -50 21 6 28 -8 29 -65 5z"/> <path d="M1860 2500 c0 -31 61 -120 82 -120 10 0 18 16 17 35 0 37 -99 122 -99 85z"/> <path d="M1406 2470 c-13 -14 -17 -33 -10 -41 8 -9 3 -9 -11 -1 -14 8 -36 7 -50 -1 -16 -10 0 -21 45 -30 81 -16 95 -9 62 31 -18 22 -18 30 1 36 14 5 17 14 6 20 -10 7 -30 0 -43 -14z"/> <path d="M1692 2485 c-6 -5 3 -23 19 -39 25 -25 33 -25 60 3 18 17 29 32 25 34 -21 8 -96 10 -104 2z"/> <path d="M2940 2473 c0 -39 -9 -40 -62 -12 -27 15 -49 14 -73 -2 -31 -20 -31 -21 -1 -12 25 8 31 1 26 -28 -8 -43 21 -54 36 -14 7 18 19 16 46 -10 35 -34 35 -35 -18 -35 -30 0 -54 -9 -54 -20 0 -18 28 -28 64 -23 8 2 9 -11 3 -27 -6 -17 -3 -30 8 -30 27 0 66 95 52 130 -6 17 0 30 13 30 17 0 21 -19 13 -61 -8 -38 -5 -56 7 -49 26 16 26 -36 -1 -63 -14 -14 -10 -20 11 -20 25 0 30 17 25 83 -6 58 0 83 18 83 14 0 20 -9 13 -19 -7 -11 -2 -14 11 -6 15 9 23 -4 23 -38 0 -29 8 -47 19 -41 10 6 24 2 32 -10 7 -12 24 -17 38 -12 14 5 51 -7 82 -27 45 -30 65 -33 98 -15 22 12 57 24 76 25 34 3 93 63 94 95 1 8 -24 15 -54 16 -30 0 -120 2 -200 5 -110 3 -143 -2 -136 -21 5 -14 1 -25 -10 -25 -10 0 -19 14 -19 30 0 32 -61 94 -83 85 -7 -3 -32 12 -55 33 -37 34 -42 34 -42 5z"/> <path d="M1483 2354 c5 -68 0 -94 -19 -94 -15 0 -21 -8 -15 -19 13 -20 91 -21 91 -1 0 7 -11 23 -24 36 -13 13 -18 29 -12 35 7 6 35 -12 63 -40 62 -62 80 -65 62 -8 -9 30 -6 38 11 27 13 -8 19 -31 14 -52 -10 -37 107 -44 163 -10 62 39 -28 110 -93 74 -19 -11 -50 7 -96 54 -38 39 -74 65 -81 57 -7 -7 -26 -2 -43 12 -25 20 -28 10 -21 -71z"/> <path d="M1360 2371 c0 -49 50 -108 74 -88 23 19 21 29 -13 60 -38 36 -61 46 -61 28z"/> <path d="M1897 2326 c13 -23 10 -42 -9 -61 -15 -15 -28 -38 -28 -51 1 -15 7 -14 18 4 17 26 78 -49 64 -77 -3 -6 5 -13 16 -17 12 -4 20 15 18 43 -3 28 -12 46 -20 40 -9 -5 -16 5 -16 22 0 17 9 31 21 31 11 0 5 22 -15 49 -41 56 -78 69 -49 17z"/> <path d="M2793 2347 c-9 -9 -26 -17 -38 -17 -12 0 -26 -13 -31 -28 -6 -19 1 -24 23 -16 45 17 57 -14 15 -40 -42 -26 -94 -1 -72 34 14 23 -19 59 -55 60 -24 0 -17 -55 10 -84 38 -40 41 -96 6 -96 -18 0 -31 -17 -31 -40 0 -22 -9 -40 -20 -40 -11 0 -20 -9 -20 -20 0 -25 60 -26 99 -1 23 14 24 24 4 48 -21 24 -17 32 20 44 44 14 44 15 6 43 -26 20 -29 27 -9 23 17 -3 50 6 75 20 39 21 45 20 47 -11 1 -21 5 -26 11 -11 6 14 19 20 28 14 10 -6 13 3 7 20 -7 17 -20 31 -29 31 -9 0 -19 19 -23 42 -3 23 -13 34 -23 25z"/> <path d="M1213 2308 c7 -28 -1 -47 -23 -55 -22 -9 -29 -26 -20 -53 9 -29 4 -40 -20 -40 -24 0 -29 11 -20 40 10 30 4 40 -24 40 -30 -1 -31 -4 -6 -20 26 -17 25 -19 -5 -20 -19 0 -35 -8 -35 -18 0 -10 -117 -18 -260 -17 -277 1 -288 -1 -268 -52 14 -36 68 -46 68 -12 0 12 -8 16 -19 10 -10 -6 -23 -4 -28 4 -6 9 21 16 58 16 46 0 69 -9 69 -28 0 -23 -6 -23 -30 -3 -24 20 -30 19 -30 -5 0 -55 59 -58 84 -5 23 52 46 63 65 32 25 -41 -106 -106 -189 -94 -43 6 -84 2 -91 -9 -20 -33 76 -98 130 -89 27 5 62 -2 78 -16 25 -20 28 -18 17 11 -7 19 -4 35 7 35 10 0 19 -13 19 -29 0 -16 10 -35 22 -42 30 -19 1 76 -30 96 -14 9 -12 15 8 16 17 1 46 5 65 9 19 3 35 -2 35 -12 0 -10 -16 -18 -35 -19 -31 0 -31 -3 5 -30 34 -26 36 -33 10 -49 -18 -12 -20 -20 -6 -20 13 0 30 10 37 21 18 29 79 -28 110 -102 13 -33 32 -59 43 -59 10 0 13 -9 6 -20 -16 -26 7 -100 31 -100 11 0 19 14 19 30 0 17 7 30 16 30 9 0 29 31 44 69 24 63 29 66 53 35 14 -19 26 -24 26 -11 1 27 -53 74 -92 80 -16 2 -26 -7 -22 -19 5 -13 -4 -36 -19 -51 -31 -31 -135 66 -112 104 7 10 3 14 -8 7 -11 -7 -37 5 -56 26 -21 23 -26 40 -13 40 13 0 23 10 23 21 0 12 -11 15 -25 7 -20 -11 -20 -8 0 13 14 15 25 41 25 58 0 18 -7 23 -15 11 -8 -11 -28 -23 -45 -27 -16 -3 -24 0 -16 8 8 8 6 31 -5 52 -14 25 -14 37 0 37 12 0 21 -11 21 -24 0 -18 6 -18 23 -1 16 16 35 17 60 3 25 -13 37 -13 37 1 0 12 19 21 42 21 38 0 39 -4 16 -33 -25 -29 -22 -31 22 -19 46 13 47 12 15 -14 -19 -16 -35 -34 -35 -41 0 -7 16 -13 35 -13 30 -1 31 -3 5 -20 -27 -18 -27 -22 0 -40 48 -31 60 -24 61 35 0 47 3 50 21 20 26 -45 65 -25 41 21 -24 46 -12 107 24 127 18 11 25 33 18 60 -8 30 -4 39 12 29 32 -20 29 13 -6 59 -28 38 -29 38 -18 -3z"/> <path d="M1741 2173 c-12 -12 -21 -14 -21 -6 0 9 -15 1 -32 -17 -18 -17 -27 -38 -19 -45 7 -8 20 -4 27 9 8 13 39 29 69 37 30 7 55 20 55 28 0 22 -56 17 -79 -6z"/> <path d="M2000 2170 c0 -16 9 -30 20 -30 11 0 20 -10 20 -21 0 -12 -9 -16 -20 -9 -35 22 -105 -29 -81 -59 17 -20 12 -29 -19 -37 -22 -6 -36 -3 -30 6 6 9 1 37 -9 63 -16 40 -19 35 -14 -33 4 -70 10 -79 48 -74 34 5 41 -2 35 -35 -4 -23 -1 -41 7 -41 8 0 16 -17 17 -39 2 -26 -6 -35 -25 -28 -37 14 -40 -93 -4 -132 20 -22 19 -25 -9 -15 -18 6 -44 -1 -57 -17 -13 -16 -16 -29 -6 -29 9 0 4 -9 -13 -20 -27 -17 -27 -19 0 -20 21 0 23 -5 6 -16 -18 -11 -16 -31 9 -82 24 -50 27 -75 10 -102 -16 -26 -16 -42 1 -60 19 -20 18 -23 -1 -12 -16 9 -25 2 -25 -19 0 -18 17 -37 39 -43 24 -6 34 -21 27 -40 -7 -17 -1 -37 13 -45 69 -43 15 -781 -56 -766 -19 4 -19 -4 -2 -37 18 -34 18 -40 -2 -27 -18 11 -22 4 -14 -27 7 -30 -3 -51 -35 -72 -56 -37 -69 -26 -57 49 7 44 1 59 -22 59 -17 0 -49 18 -71 40 -51 51 -80 51 -80 1 0 -50 39 -74 62 -39 13 20 17 21 18 3 0 -14 13 -25 29 -25 18 0 28 -20 27 -55 -1 -30 0 -66 1 -80 4 -34 83 -32 83 2 0 15 23 37 50 49 28 13 50 37 50 54 0 16 13 30 28 30 15 0 28 20 29 45 1 25 10 108 21 185 11 77 20 231 21 343 1 154 8 205 29 213 19 8 24 0 18 -26 -6 -21 4 -58 22 -83 34 -49 45 -167 14 -148 -11 7 -16 -37 -11 -104 4 -63 8 -115 9 -115 12 0 13 -212 2 -219 -9 -5 -12 15 -8 45 7 43 5 48 -13 24 -18 -24 -20 -19 -10 23 7 29 3 58 -9 66 -30 18 -27 -74 6 -199 28 -105 22 -178 -10 -127 -13 21 -17 19 -18 -8 0 -19 11 -35 26 -35 14 0 41 -18 59 -40 19 -22 53 -40 75 -40 22 0 40 -9 40 -20 0 -11 23 -20 50 -20 28 0 50 -8 50 -17 0 -10 50 -17 110 -16 67 1 108 10 103 22 -4 12 -49 20 -100 20 -109 -2 -111 0 -34 40 65 34 108 42 61 11 -26 -17 -25 -19 5 -20 19 0 35 14 35 30 0 36 10 37 63 9 30 -17 52 -14 91 12 28 18 45 23 37 11 -7 -12 -3 -22 10 -22 12 0 28 19 34 42 8 30 21 38 53 30 23 -6 52 -12 65 -12 12 0 21 -15 20 -34 -2 -25 15 -36 62 -40 36 -3 65 4 65 15 0 12 9 16 20 9 29 -18 23 14 -10 58 -23 31 -56 38 -174 39 -80 1 -153 11 -161 22 -9 13 -20 4 -27 -22 -6 -24 -29 -48 -50 -53 -21 -6 -33 -2 -27 8 6 10 -3 18 -20 18 -17 0 -31 9 -31 20 0 11 -9 20 -20 20 -36 0 -21 -60 15 -61 30 -2 29 -4 -5 -19 -57 -24 -130 -25 -91 -1 15 10 30 32 33 49 2 18 -4 27 -14 21 -10 -7 -13 -20 -7 -30 6 -11 -6 -19 -28 -19 -22 0 -54 -5 -71 -12 -18 -7 -52 10 -85 45 -29 31 -47 46 -40 33 8 -13 5 -28 -5 -35 -17 -10 -7 -91 12 -91 5 0 26 9 47 20 31 17 36 15 26 -10 -7 -19 -37 -30 -84 -30 -49 1 -64 6 -46 18 18 11 22 33 13 61 -13 42 -15 42 -43 7 -17 -20 -24 -25 -17 -11 7 14 4 25 -5 25 -15 0 -18 45 -7 98 1 5 19 -7 40 -26 28 -26 39 -28 46 -8 13 38 -11 119 -34 116 -20 -2 -44 60 -48 125 -1 19 6 35 17 35 10 0 18 -27 17 -60 -1 -33 4 -66 11 -74 7 -7 13 44 13 113 0 107 -5 123 -32 113 -29 -11 -31 1 -17 103 8 63 14 135 12 160 -1 25 7 45 18 45 12 0 9 12 -5 28 -14 15 -33 24 -41 19 -33 -20 -41 59 -8 83 18 13 33 37 33 53 0 16 8 38 17 48 10 10 24 45 32 77 l13 58 -51 -61 c-28 -33 -51 -77 -51 -96 0 -20 -6 -30 -13 -23 -7 8 -26 3 -41 -9 -21 -18 -24 -16 -14 10 7 18 2 33 -10 33 -12 0 -22 -9 -22 -19 0 -11 -13 -15 -30 -8 -40 15 -38 42 5 53 32 9 32 10 -1 12 -20 1 -31 11 -24 22 7 12 21 16 31 9 10 -6 13 3 7 20 -14 35 -51 43 -43 9 3 -13 -6 -26 -20 -29 -15 -3 -17 -2 -7 4 11 5 15 23 9 38 -11 28 12 38 68 30 14 -1 25 11 25 28 0 17 -16 31 -35 31 -30 1 -31 3 -5 20 22 14 35 9 48 -21 10 -21 26 -39 35 -39 24 0 21 55 -3 70 -32 20 -4 47 38 36 29 -7 37 2 37 42 0 56 -24 70 -42 23 -8 -22 -25 -25 -74 -11 -35 10 -69 18 -76 17 -59 -8 -81 52 -27 72 19 8 25 2 17 -19 -13 -33 -2 -35 57 -10 22 9 29 18 15 19 -40 2 -29 35 15 47 27 7 36 21 28 42 -9 24 -4 29 20 20 46 -17 40 18 -8 47 -22 14 -40 35 -40 46 0 12 9 16 20 9 11 -7 36 -2 55 9 29 18 24 21 -26 14 -69 -9 -137 92 -78 115 14 5 30 35 35 66 l8 56 3 -60 c2 -33 13 -73 25 -90 15 -22 17 -12 8 40 -8 47 -6 61 7 42 10 -15 29 -21 42 -13 17 11 17 21 0 42 -12 15 -17 35 -11 45 6 10 -12 37 -39 61 -58 51 -69 53 -69 13z m-20 -660 c11 7 20 5 20 -4 0 -9 -18 -28 -40 -41 -33 -21 -40 -20 -40 5 0 16 -9 30 -20 30 -11 0 -20 9 -20 21 0 14 13 13 40 -1 23 -12 50 -16 60 -10z m15 -685 c-5 -41 -8 -7 -8 75 0 83 3 116 8 75 4 -41 4 -109 0 -150z"/> <path d="M2381 2151 c-14 -16 -18 -40 -9 -54 9 -15 5 -20 -14 -12 -15 6 -44 17 -63 25 -19 8 -35 7 -35 -3 1 -31 30 -61 60 -62 17 0 45 -6 62 -14 38 -15 63 48 37 91 -10 16 -7 33 7 42 17 11 17 15 1 16 -12 0 -33 -13 -46 -29z"/> <path d="M2830 2160 c-7 -11 -1 -20 12 -20 14 0 8 -15 -14 -35 -41 -38 -63 -96 -27 -74 12 7 34 -4 50 -24 25 -33 28 -33 28 -3 1 54 40 63 80 17 30 -35 33 -51 14 -91 -13 -28 -26 -38 -29 -23 -3 14 -38 42 -77 61 -75 35 -112 29 -71 -12 27 -27 33 -64 7 -48 -9 6 -10 -32 -2 -84 16 -102 4 -132 -48 -113 -38 15 -42 58 -11 145 18 51 15 71 -15 112 -42 57 -67 66 -67 24 0 -16 -7 -32 -15 -37 -8 -5 -5 -6 7 -4 46 11 68 -24 56 -88 -11 -55 -18 -60 -44 -38 -27 21 -29 19 -17 -13 12 -32 9 -34 -17 -12 -55 46 -58 2 -3 -49 58 -54 68 -91 25 -91 -18 0 -25 14 -18 40 6 22 1 40 -12 40 -12 0 -22 -8 -22 -18 0 -9 -20 -22 -45 -29 -41 -10 -42 -9 -10 15 50 37 44 50 -24 48 -38 -1 -55 -10 -46 -24 8 -12 16 -34 18 -50 6 -36 27 -54 85 -72 35 -11 43 -8 31 11 -10 16 -7 20 8 11 41 -25 108 8 97 48 -12 47 28 34 61 -19 18 -29 18 -43 2 -53 -14 -9 -18 -5 -9 9 9 15 3 18 -19 10 -30 -12 -31 -15 -1 -31 18 -10 32 -36 32 -57 0 -21 10 -39 21 -39 12 0 17 16 11 35 -6 19 -4 47 6 62 12 20 19 16 27 -15 7 -27 28 -42 58 -42 32 -1 39 -6 21 -17 -16 -11 0 -17 46 -19 88 -3 76 27 -19 45 -38 7 -74 20 -79 29 -14 21 45 102 74 102 15 0 17 -6 4 -15 -11 -8 -23 -28 -27 -45 -3 -16 0 -23 8 -15 9 8 27 5 42 -8 29 -24 95 13 77 43 -5 9 4 21 21 28 18 6 26 21 19 32 -7 11 3 26 23 34 20 7 38 3 42 -10 5 -13 23 -24 42 -24 50 -1 -15 -39 -67 -40 -45 0 -99 -92 -67 -112 11 -7 15 -23 10 -37 -5 -13 3 -24 19 -24 36 0 36 23 -1 60 -26 26 -24 33 22 63 29 19 46 24 38 12 -8 -14 6 -22 38 -22 28 0 50 7 49 15 -7 41 6 61 45 72 37 9 40 16 18 42 -18 21 -19 31 -3 31 12 0 22 -8 22 -18 0 -36 52 -37 96 -1 28 22 39 48 32 68 -15 38 -61 29 -52 -10 5 -21 1 -21 -25 0 -17 14 -31 18 -31 8 0 -10 -29 -20 -65 -23 -65 -4 -65 -4 -22 31 24 19 47 53 51 75 4 23 22 39 42 37 28 -2 30 3 13 25 -30 35 -79 -9 -79 -70 0 -28 -9 -37 -30 -29 -16 6 -30 20 -30 30 0 11 9 14 20 7 11 -7 20 -3 20 9 0 11 -13 21 -30 21 -16 0 -28 11 -25 25 3 14 -5 23 -16 21 -12 -2 -21 12 -20 30 0 19 -8 34 -19 34 -30 0 -14 -72 25 -117 34 -37 34 -38 -10 -11 -36 22 -49 22 -70 1 -20 -21 -19 -23 9 -12 47 17 102 -37 71 -68 -17 -17 -17 -23 2 -23 14 0 20 -9 13 -20 -14 -22 -89 -27 -137 -9 -22 9 -25 26 -13 70 13 46 11 59 -11 59 -37 0 -40 -132 -4 -147 15 -6 10 -11 -11 -11 -20 -1 -31 -11 -24 -22 7 -12 21 -16 30 -10 9 6 24 0 32 -13 9 -15 5 -18 -11 -8 -17 11 -22 2 -18 -30 4 -26 -5 -49 -21 -55 -21 -7 -24 3 -15 42 7 28 5 56 -4 62 -10 6 -13 34 -8 61 7 35 -1 54 -23 63 -28 11 -24 20 22 55 53 41 98 175 48 144 -12 -7 -22 -4 -22 8 0 11 -13 21 -30 21 -16 0 -30 10 -30 21 0 12 -17 16 -38 10 -31 -10 -37 -5 -28 27 6 23 21 35 38 28 15 -5 28 -2 28 7 0 25 -95 31 -110 7z m40 -435 c-9 -36 -5 -44 14 -33 19 12 19 7 -1 -18 -16 -19 -35 -34 -43 -34 -22 0 -14 67 10 87 13 10 11 20 -5 26 -14 6 -25 24 -25 41 0 26 5 27 31 5 21 -17 27 -43 19 -74z"/> <path d="M2960 2153 c0 -39 32 -44 47 -8 5 14 11 6 11 -18 1 -23 16 -48 32 -54 25 -10 27 -5 10 27 -23 43 -20 46 27 28 17 -6 26 -23 20 -38 -6 -16 7 -27 37 -28 96 -3 136 -11 136 -26 0 -9 -20 -16 -44 -16 -43 0 -43 -2 -9 -35 33 -33 37 -33 76 15 22 28 35 39 27 25 -7 -15 -3 -24 12 -20 14 3 37 -17 51 -45 20 -38 26 -41 27 -15 0 20 23 45 50 55 28 10 50 28 50 40 0 11 14 20 30 20 46 0 36 33 -15 51 -66 22 -135 26 -135 6 0 -9 8 -17 18 -17 30 0 37 -70 9 -96 -22 -21 -27 -20 -27 5 0 17 -12 31 -26 31 -15 0 -44 14 -65 31 -42 34 -30 35 71 5 17 -5 23 -6 15 -1 -8 5 -16 23 -17 42 -1 22 -5 25 -12 7 -8 -21 -18 -19 -46 6 -24 22 -40 25 -49 11 -8 -12 -24 -16 -35 -8 -12 7 -41 16 -64 20 -23 3 -80 12 -127 19 -71 11 -85 8 -85 -19z"/> <path d="M1287 2136 c-36 -59 -26 -116 16 -90 33 20 44 18 68 -15 33 -43 56 -33 37 16 -7 18 -33 39 -59 45 -29 7 -42 22 -36 40 14 34 -5 37 -26 4z"/> <path d="M1773 2087 c-7 -8 -13 -29 -13 -48 0 -44 -61 -69 -83 -35 -12 20 -29 12 -67 -29 -50 -54 -26 -83 26 -31 19 19 29 19 48 0 19 -19 34 -12 69 31 25 30 46 44 46 31 1 -13 -23 -47 -53 -74 -30 -28 -49 -56 -42 -63 21 -21 127 99 130 148 3 32 -5 43 -24 36 -18 -7 -24 -1 -17 18 12 31 3 38 -20 16z"/> <path d="M2252 1949 c-17 -65 -1 -90 54 -87 36 2 37 4 8 12 -29 7 -34 22 -24 68 16 72 -21 79 -38 7z"/> <path d="M2497 1995 c-12 -25 -7 -91 6 -83 10 6 14 -12 9 -40 -11 -60 33 -70 97 -21 38 29 38 29 -1 29 -40 0 -88 35 -88 63 0 9 16 10 35 3 31 -12 32 -9 8 20 -24 30 -58 44 -66 29z"/> <path d="M373 1927 c-26 -26 -12 -62 27 -73 22 -6 40 -22 40 -37 -1 -21 -5 -20 -20 3 -14 22 -19 11 -20 -45 0 -47 9 -75 25 -75 18 -1 18 -5 -2 -18 -19 -12 -21 -21 -5 -31 27 -16 67 5 52 29 -19 31 79 31 106 0 15 -16 21 -19 14 -5 -7 15 0 25 19 25 17 0 31 10 31 22 0 12 -14 17 -31 10 -19 -7 -26 -3 -18 10 8 13 -1 19 -24 15 -20 -3 -48 1 -62 10 -14 8 -25 7 -25 -4 0 -10 -13 -24 -30 -30 -18 -7 -30 0 -30 18 0 16 14 29 31 29 18 0 25 10 18 22 -10 16 -3 16 27 0 70 -38 113 -29 70 14 -75 74 -115 98 -100 59 7 -19 8 -35 3 -35 -6 0 -19 23 -29 50 -19 50 -41 62 -67 37z"/> <path d="M1631 1887 c-7 -19 -1 -41 13 -50 38 -24 67 -20 42 5 -13 13 -18 35 -12 50 6 16 1 28 -10 28 -11 0 -25 -15 -33 -33z"/> <path d="M2171 1901 c-7 -11 -28 -14 -47 -8 -21 7 -26 4 -12 -6 12 -9 27 -30 33 -47 9 -22 12 -19 14 10 1 32 5 34 20 11 11 -17 11 -43 0 -64 -26 -48 -26 -48 39 -53 50 -4 57 2 55 46 -2 28 -13 47 -24 42 -32 -12 -75 62 -43 75 18 7 18 10 0 11 -13 1 -29 -7 -35 -17z"/> <path d="M1568 1817 c5 -45 20 -92 33 -105 19 -17 22 -10 12 28 -7 28 -13 75 -13 105 0 30 -9 55 -21 55 -13 0 -17 -32 -11 -83z"/> <path d="M831 1848 c-22 -16 -58 -22 -87 -15 -33 9 -45 6 -37 -9 10 -15 -4 -16 -44 -5 -51 15 -57 12 -48 -21 5 -21 18 -38 27 -38 10 0 18 -27 18 -60 0 -79 33 -76 68 5 25 55 29 58 30 20 2 -50 22 -57 58 -21 17 17 17 30 1 50 -16 19 -16 26 2 26 13 0 18 9 11 20 -7 12 2 14 22 6 23 -9 30 -5 20 10 -9 16 -3 19 17 12 17 -7 31 -22 31 -33 0 -12 5 -17 10 -11 44 44 -47 102 -99 64z"/> <path d="M1322 1825 c-10 -19 -27 -33 -36 -31 -29 6 -3 -63 31 -83 63 -37 93 -28 158 45 67 78 79 104 44 104 -11 0 -28 -20 -38 -45 -10 -25 -19 -36 -20 -25 -1 11 -10 7 -21 -10 -17 -26 -19 -25 -20 4 0 54 -73 85 -98 41z"/> <path d="M2320 1800 c0 -47 13 -50 50 -12 30 29 20 52 -23 52 -15 0 -27 -18 -27 -40z"/> <path d="M1731 1786 c-6 -16 -5 -39 2 -51 9 -14 20 -8 29 16 14 35 15 34 17 -8 1 -34 -7 -44 -29 -36 -17 7 -53 3 -81 -8 -33 -12 -65 -12 -87 0 -24 13 -43 12 -59 -4 -32 -32 -29 -56 7 -42 16 6 24 21 17 32 -8 13 -3 15 13 5 26 -16 -30 -77 -58 -63 -7 4 -28 -10 -47 -30 -19 -20 -27 -37 -16 -37 10 0 24 9 31 20 7 11 27 20 45 20 17 0 47 14 66 31 27 24 39 26 50 7 11 -17 6 -19 -13 -8 -15 9 -7 -4 18 -29 26 -25 52 -39 59 -33 7 7 2 23 -11 36 -34 34 -30 50 14 61 34 9 38 0 35 -77 -3 -86 -21 -103 -99 -90 -26 4 -39 -57 -17 -84 12 -15 14 -37 3 -54 -22 -35 -29 -28 -81 72 -23 44 -37 58 -32 33 5 -25 2 -40 -7 -35 -23 14 -46 -64 -29 -92 9 -14 4 -19 -13 -14 -15 6 -25 25 -22 43 6 36 -26 45 -46 13 -41 -67 124 -133 183 -73 7 7 25 3 40 -10 20 -16 27 -16 27 2 0 13 8 19 17 13 25 -16 70 80 56 117 -8 22 4 39 36 54 27 12 54 36 60 53 10 25 7 25 -19 4 -26 -22 -29 -20 -17 10 10 28 7 32 -13 20 -15 -9 -2 17 30 58 38 50 50 80 35 89 -12 7 -21 30 -19 51 5 45 -58 61 -75 18z"/> <path d="M860 1707 c0 -43 8 -64 21 -56 11 7 15 30 9 51 -10 28 -5 35 19 26 17 -7 31 -3 31 8 0 10 -18 24 -40 30 -34 9 -40 0 -40 -59z"/> <path d="M1140 1723 c0 -24 -13 -49 -30 -56 -16 -6 -29 -31 -28 -54 2 -34 5 -36 12 -8 7 28 17 31 47 14 27 -14 39 -14 39 0 0 12 -9 21 -20 21 -12 0 -10 16 4 40 20 31 20 44 0 64 -19 19 -24 15 -24 -21z"/> <path d="M950 1692 c-32 -38 -31 -66 3 -94 38 -32 87 -41 87 -16 0 10 -13 18 -29 18 -17 0 -31 24 -35 58 -4 41 -12 51 -26 34z"/> <path d="M1446 1685 c-7 -19 -23 -42 -35 -51 -12 -9 -4 -13 19 -9 22 4 38 18 35 31 -3 13 4 24 15 24 11 0 20 9 20 20 0 33 -40 22 -54 -15z"/> <path d="M330 1680 c-7 -12 -21 -15 -31 -9 -11 6 -19 2 -19 -10 0 -11 8 -21 18 -21 10 0 32 -5 48 -11 18 -7 33 4 39 30 12 43 -31 59 -55 21z"/> <path d="M2245 1687 c-46 -19 -4 -47 71 -48 55 -1 64 -6 35 -17 -26 -10 -31 -20 -15 -29 26 -17 104 19 104 47 0 17 -23 25 -140 50 -16 4 -41 2 -55 -3z"/> <path d="M3295 1658 c-33 -36 -33 -38 0 -40 19 -1 64 -6 99 -10 56 -6 105 19 82 43 -22 21 -106 17 -101 -5 3 -14 -8 -20 -26 -13 -23 9 -25 18 -7 39 35 43 -7 30 -47 -14z"/> <path d="M185 1666 c-59 -11 -57 -50 3 -78 52 -24 85 -13 80 27 -2 14 -4 34 -5 45 -2 11 -10 19 -18 17 -8 -1 -35 -6 -60 -11z"/> <path d="M791 1662 c-6 -10 -6 -33 1 -50 7 -18 2 -32 -11 -32 -13 0 -18 9 -11 20 7 11 -2 20 -19 20 -17 0 -31 -13 -31 -30 0 -17 18 -30 41 -30 26 0 36 -9 27 -23 -8 -13 -3 -19 14 -13 17 6 28 38 29 83 0 70 -16 93 -40 55z"/> <path d="M1278 1665 c-2 -8 -2 -22 0 -30 1 -8 -7 -15 -18 -15 -11 0 -20 -16 -19 -35 0 -33 1 -33 21 0 11 19 33 35 48 35 17 0 24 12 17 30 -12 31 -45 41 -49 15z"/> <path d="M2148 1653 c7 -20 12 -40 12 -45 0 -4 34 -7 75 -6 l75 2 -68 16 c-37 9 -76 28 -86 43 -15 20 -17 18 -8 -10z"/> <path d="M415 1571 c5 -27 27 -55 47 -62 21 -6 33 -20 27 -31 -7 -10 -19 -14 -28 -9 -9 6 -50 -7 -92 -27 -43 -21 -89 -33 -103 -28 -48 19 -27 -29 29 -66 30 -20 61 -37 68 -37 8 -1 20 -8 29 -16 28 -29 53 -15 27 16 -22 26 -18 28 27 11 28 -11 70 -17 93 -12 22 4 41 0 41 -11 0 -10 15 -12 34 -5 27 11 28 15 5 23 -16 5 -44 27 -63 48 -21 23 -48 35 -66 28 -20 -8 -27 -4 -19 9 8 12 35 18 61 13 52 -10 58 -1 30 43 -21 32 -7 82 21 82 11 0 13 -10 5 -23 -9 -14 -5 -18 9 -9 48 30 20 52 -67 52 -67 0 -90 8 -90 30 0 17 -8 30 -17 30 -10 0 -13 -22 -8 -49z m-35 -185 c0 9 11 10 23 2 16 -10 8 -21 -23 -32 -57 -21 -107 15 -60 44 19 11 34 9 44 -6 9 -13 16 -17 16 -8z"/> <path d="M1333 1552 c-21 -32 -27 -71 -19 -120 7 -47 3 -72 -11 -72 -13 0 -23 23 -23 51 0 28 -8 47 -17 41 -27 -17 7 -191 45 -228 39 -39 87 4 52 46 -22 26 -3 113 28 135 15 11 11 24 -13 43 -19 14 -35 41 -35 59 0 51 58 39 84 -17 12 -27 30 -50 39 -50 29 0 19 31 -28 81 -25 26 -43 55 -40 64 11 35 -33 11 -62 -33z"/> <path d="M3288 1555 c8 -50 54 -116 73 -104 10 6 19 2 19 -10 0 -11 -9 -21 -20 -21 -11 0 -20 -9 -20 -20 0 -46 52 -16 56 32 3 38 -4 49 -25 41 -20 -7 -25 -1 -18 19 8 18 2 27 -16 24 -16 -4 -25 8 -21 29 3 19 -3 35 -13 35 -11 0 -18 -11 -15 -25z"/> <path d="M3780 1557 c0 -8 -29 -10 -65 -4 -103 16 -155 -33 -96 -92 24 -24 50 -38 58 -31 7 7 -4 22 -23 33 -29 16 -31 26 -13 49 28 33 79 37 79 6 0 -13 24 -17 65 -9 l65 12 -75 -45 c-73 -45 -104 -91 -45 -69 33 13 42 -18 10 -37 -52 -32 -102 -28 -91 7 8 25 -4 44 -37 62 -31 17 -46 40 -42 64 8 41 -77 55 -101 16 -9 -14 -21 -14 -39 1 -16 13 -31 14 -38 3 -12 -19 35 -69 51 -54 4 5 8 -8 8 -30 0 -21 -7 -39 -15 -39 -9 0 -16 -10 -16 -21 0 -12 11 -16 25 -9 14 7 9 0 -10 -16 -37 -30 -50 -85 -15 -64 11 7 20 3 20 -8 0 -11 13 -16 30 -9 17 6 35 -3 42 -21 7 -18 21 -32 33 -32 12 0 11 11 -3 28 -18 22 -18 30 2 38 14 5 1 16 -30 24 -38 10 -53 24 -45 44 6 16 11 44 11 62 0 25 5 27 24 8 13 -13 39 -24 57 -24 25 0 31 -13 24 -50 -7 -37 -1 -50 23 -50 17 0 32 -9 32 -20 0 -11 -13 -20 -29 -20 -18 0 -25 -12 -18 -30 25 -66 90 -35 76 37 -9 52 -5 67 19 70 18 2 46 5 63 6 17 2 36 28 42 57 6 31 36 68 69 88 54 32 77 70 43 74 -82 9 -125 7 -125 -5z"/> <path d="M2680 1540 c0 -14 -24 -46 -54 -72 -30 -25 -48 -53 -40 -61 8 -8 33 6 55 29 43 47 79 57 79 24 0 -11 8 -20 18 -20 25 0 3 74 -30 102 -21 17 -28 17 -28 -2z"/> <path d="M663 1512 c37 -29 35 -62 -10 -114 -29 -34 -32 -47 -11 -59 35 -22 58 -5 58 42 0 46 45 51 87 9 17 -17 35 -22 41 -13 6 10 35 18 65 18 30 0 66 16 80 36 32 43 36 97 7 79 -12 -7 -14 -23 -6 -36 8 -15 1 -13 -19 3 -18 14 -44 20 -58 11 -17 -11 -13 -19 14 -30 29 -11 21 -16 -34 -17 -41 0 -83 12 -97 29 -13 16 -33 25 -42 19 -10 -7 -23 1 -29 16 -6 16 -25 28 -43 28 -26 0 -27 -3 -3 -21z"/> <path d="M1040 1501 c0 -11 11 -21 25 -21 14 0 1 -20 -28 -45 -57 -48 -109 -135 -82 -135 9 0 29 11 44 25 21 20 24 20 13 0 -18 -32 12 -33 44 -1 38 38 28 60 -21 46 -35 -10 -38 -8 -15 8 17 12 45 22 64 22 47 0 38 107 -9 116 -19 4 -35 -3 -35 -15z"/> <path d="M2156 1497 c-8 -21 -2 -38 15 -45 16 -6 29 -25 29 -41 0 -17 10 -31 22 -31 12 0 17 14 10 32 -7 17 -12 40 -12 51 0 11 -8 14 -18 8 -11 -6 -22 4 -26 24 -7 32 -8 32 -20 2z"/> <path d="M3162 1492 c-18 -22 -12 -29 31 -38 65 -12 112 3 95 29 -7 11 -25 15 -40 9 -15 -6 -28 -2 -28 9 0 28 -31 23 -58 -9z"/> <path d="M2964 1396 c-33 -33 -30 -63 5 -49 15 6 32 1 36 -11 7 -22 50 -31 165 -35 46 -1 53 -6 30 -21 -25 -16 -26 -26 -5 -60 24 -38 23 -39 -15 -16 -22 14 -40 37 -40 51 0 14 -8 25 -18 25 -27 0 -1 -80 25 -81 13 0 6 -13 -15 -29 -34 -25 -34 -30 -6 -41 67 -26 104 -1 99 67 -3 35 4 64 16 64 12 0 16 9 9 20 -7 11 8 29 34 39 l46 18 -44 2 c-29 1 -41 10 -34 28 12 32 -38 57 -81 41 -36 -14 -17 -68 24 -68 18 0 26 -5 20 -12 -15 -15 -135 11 -132 28 9 65 -68 91 -119 40z"/> <path d="M727 1371 c6 -15 0 -32 -13 -37 -13 -4 2 -8 34 -9 33 0 70 -16 85 -36 15 -20 28 -33 29 -28 23 88 2 154 -32 99 -19 -31 -70 -24 -70 10 0 17 -10 30 -22 30 -12 0 -17 -13 -11 -29z"/> <path d="M2343 1365 c9 -52 -54 -130 -107 -133 -33 -2 -45 -14 -42 -42 2 -22 -10 -47 -25 -56 -16 -9 -29 -25 -29 -36 0 -11 8 -15 18 -9 11 6 23 -4 28 -24 9 -33 9 -33 12 1 1 28 15 20 62 -33 46 -53 74 -68 115 -63 30 3 61 -4 68 -15 7 -11 19 0 27 24 17 53 -5 82 -31 40 -12 -20 -18 -21 -19 -4 0 35 -31 31 -72 -10 -34 -33 -35 -33 -22 2 8 20 14 50 14 66 0 16 8 24 18 18 21 -13 82 7 82 27 0 12 -32 19 -114 27 -13 1 -22 8 -20 16 2 8 -5 14 -16 12 -10 -2 -22 -20 -25 -40 -4 -25 4 -34 23 -27 19 8 24 0 17 -29 l-11 -40 -40 40 c-85 85 -64 139 53 133 60 -3 109 4 118 17 9 15 14 10 15 -12 0 -19 14 -35 31 -35 19 0 26 -9 17 -23 -9 -14 -5 -18 9 -9 13 8 23 5 23 -7 0 -11 7 -20 15 -19 54 9 69 -5 57 -52 -9 -36 -4 -54 17 -63 17 -6 25 -21 18 -34 -8 -13 10 -2 38 23 38 35 53 40 61 20 7 -17 11 -14 12 9 1 19 10 35 20 35 10 0 8 23 -5 50 -23 50 -80 82 -128 73 -14 -3 -25 9 -25 25 0 18 12 26 28 20 15 -6 34 -1 41 11 7 11 5 21 -5 21 -11 0 -24 27 -31 60 -7 33 -21 60 -32 60 -27 0 -27 -34 -1 -50 11 -7 20 -26 20 -42 0 -17 -9 -25 -20 -18 -12 7 -15 21 -9 31 6 11 -3 19 -21 19 -25 0 -27 -8 -11 -39 32 -59 25 -101 -16 -101 -48 0 -107 66 -93 103 6 16 -11 48 -40 73 -61 53 -74 55 -67 9z m43 -78 c-9 -23 -5 -29 11 -19 24 15 33 -12 11 -33 -19 -19 -68 7 -68 35 0 22 12 33 54 48 3 1 -1 -13 -8 -31z"/> <path d="M2104 1346 c-14 -20 -20 -25 -14 -11 7 14 4 25 -6 25 -11 0 -24 -18 -30 -41 -9 -34 -4 -39 33 -27 56 17 58 19 50 57 -6 28 -10 28 -33 -3z"/> <path d="M1140 1315 c1 -52 26 -115 46 -115 11 0 15 6 8 13 -8 7 -4 25 9 40 12 15 15 27 7 27 -8 0 -4 14 10 30 21 25 17 30 -28 30 -28 0 -52 -11 -52 -25z"/> <path d="M2480 1284 c0 -45 9 -64 31 -64 24 0 28 12 18 45 -23 77 -49 87 -49 19z"/> <path d="M681 1268 c20 -24 19 -27 -8 -16 -18 7 -33 2 -33 -10 0 -12 15 -22 33 -22 19 0 28 -6 21 -12 -18 -19 43 -72 66 -58 11 7 20 25 20 41 0 16 9 29 20 29 29 0 24 60 -5 61 -14 1 -50 5 -81 9 -48 6 -53 3 -33 -22z"/> <path d="M1017 1286 c-41 -5 -78 -21 -84 -36 -17 -43 19 -55 55 -19 29 29 32 29 32 0 0 -17 13 -31 28 -31 16 0 32 -11 37 -24 11 -33 55 -1 55 40 0 22 -6 26 -15 12 -9 -14 -31 -16 -55 -7 -39 16 -36 21 13 27 13 1 27 13 32 27 5 14 1 23 -8 22 -9 -2 -50 -7 -90 -11z"/> <path d="M2773 1230 c-7 -16 -1 -27 11 -25 13 3 26 -21 29 -52 6 -64 28 -96 41 -59 5 13 22 19 37 13 16 -6 29 -1 29 11 0 12 9 22 20 22 11 0 20 -13 20 -30 0 -19 19 -30 50 -30 50 0 50 1 17 51 -26 40 -28 56 -9 75 14 13 23 15 21 4 -11 -56 2 -100 20 -71 12 19 11 35 -2 43 -11 7 -20 20 -19 30 2 24 -122 26 -153 3 -17 -13 -28 -9 -37 13 -15 40 -60 42 -75 2z"/> <path d="M2472 1083 c-8 -13 -5 -23 7 -23 11 0 21 -14 21 -31 0 -19 10 -26 25 -19 14 7 8 -1 -14 -19 -32 -26 -33 -31 -6 -31 17 0 44 -3 58 -7 15 -3 20 -3 12 2 -8 5 -15 19 -15 32 -1 42 -73 120 -88 96z"/> <path d="M1993 328 c-35 -49 -33 -108 4 -108 10 0 23 19 29 42 6 23 20 37 30 31 10 -7 14 10 9 38 -12 61 -25 61 -72 -3z"/> <path d="M2335 338 c-19 -21 -26 -38 -15 -38 11 0 20 -13 20 -28 0 -18 14 -25 40 -18 32 8 35 18 19 49 -12 21 -15 47 -9 57 21 34 -18 18 -55 -22z"/> <path d="M2785 358 c-36 -11 -65 -28 -65 -40 0 -11 11 -13 25 -5 40 26 120 31 106 8 -8 -12 -4 -21 8 -21 11 0 21 18 21 40 0 44 -2 44 -95 18z"/> <path d="M1605 247 c-87 -31 -122 -80 -40 -57 82 24 155 60 155 75 0 20 -14 18 -115 -18z"/> </g> </svg> 